<svg xmlns="http://www.w3.org/2000/svg" id="access" viewBox="0.0 0.0 128.0 128.0" width="65" height="65"><path d="m108.68,42.75h7.18c.96,0,1.74-.78,1.74-1.74v-4.46c0-.7-.42-1.34-1.07-1.61L62.99,12.64c-.43-.18-.91-.18-1.34,0L8.1,34.95c-.65.27-1.07.9-1.07,1.61v4.46c0,.96.78,1.74,1.74,1.74h7.18v52.38h-.98c-.96,0-1.74.78-1.74,1.74h0c0,.96.78,1.74,1.74,1.74h94.68c.96,0,1.74-.78,1.74-1.74h0c0-.96-.78-1.74-1.74-1.74h-.98v-52.38h0ZM24.88,95.14h-5.44v-45.6h5.44v45.6Zm17.85,0h-14.37v-45.6h14.37v45.6h0Zm8.92,0h-5.44v-45.6h5.44v45.6Zm17.85,0h-14.37v-45.6h14.37s0,45.6,0,45.6Zm8.92,0h-5.44v-45.6h5.44v45.6Zm17.85,0h-14.37v-45.6h14.37v45.6h0Zm8.92,0h-5.44v-45.6h5.44v45.6Zm0-49.08H21.09c-.91,0-1.65-.74-1.65-1.65h0c0-.91.74-1.65,1.65-1.65h84.11v3.3Zm1.74-6.78H10.51v-1.56l51.8-21.58,51.8,21.58v1.56h-7.18Z" fill="#fff" /><path d="m10.45,107.51h103.74c.98,0,1.77-.79,1.77-1.77s-.79-1.77-1.77-1.77H10.45c-.98,0-1.77.79-1.77,1.77s.79,1.77,1.77,1.77Z" fill="#fff" /><path d="m6.01,115.5h112.61c.98,0,1.77-.79,1.77-1.77s-.79-1.77-1.77-1.77H6.01c-.98,0-1.77.79-1.77,1.77s.79,1.77,1.77,1.77Z" fill="#fff" /></svg>