<svg xmlns="http://www.w3.org/2000/svg" id="beer_5x" viewBox="0.0 0.0 128.0 128.0" width="65" height="65"><path d="m71.14,103.32c.16-.05.75-.24,1.43-.48.62-.22,1.11-.42,1.43-.8.18-.22.25-.9.04-1.61-.31-1.04-.77-1.74-1.38-2.09-.61-.34-1.33-.38-2.08-.07-.66.26-1.11.79-1.43,1.65-.41,1.12-.45,2.54-.22,3.17.27.73.71.72,2.23.24Z" fill="none" /><path d="m79.41,107.22c-.54-.42-1.29-.62-1.7-.19-.64.64-1.91,1.77-3.27,2.2-1.28.41-4.22.49-5.07-1.91-.08-.22-.09-.38-.05-.47.05-.09.17-.16.43-.24l.12-.04c.82-.25,2.75-.82,4.75-1.57,1.91-.71,3.62-1.59,4.16-1.95.95-.62,1.21-1.56.73-2.64-.68-1.53-3.4-6.46-9.56-5.28-4.04.77-6.98,4.4-6.98,8.62,0,4.68,2.65,8.1,7.09,9.15.64.15,1.3.22,1.96.22,3.12,0,6.33-1.61,7.88-4.12.44-.69,0-1.39-.5-1.78Zm-10.49-4.14c-.22-.63-.19-2.05.22-3.17.32-.86.77-1.38,1.43-1.65.75-.3,1.47-.27,2.08.07.61.35,1.08,1.06,1.38,2.09.21.71.14,1.39-.04,1.61-.31.38-.81.57-1.43.8-.68.24-1.27.43-1.43.48-1.52.48-1.96.49-2.23-.24Z" fill="#fff" /><path d="m61.51,109.12h0c-.12.07-.25.14-.37.22-.19.12-.45.31-.55.25-.09-.05-.12-.12-.12-.51v-9.03c0-2.55-.99-4.11-3.02-4.76-1.97-.62-4.42.52-5.22.9l-.74.36-.1-.22c-.13-.29-.33-.59-.83-.59h-5.25c-.43,0-.83.04-.92.54l-.13.97c-.01.09-.02.13-.02.19,0,.21.04.46.34.6l.57.33c.52.26.63,1.08.63,1.72v8.16c0,.54-.16,1.24-.63,1.47l-.89.49c-.23.12-.32.3-.32.61,0,.05,0,.09.01.15l.13,1.3c.08.48.47.51.89.51h7.39c.42,0,.8-.04.89-.53l.13-1.28c.01-.07.01-.11.01-.19,0-.28-.1-.46-.32-.58l-.9-.5c-.46-.22-.63-.93-.63-1.46v-6.5c0-1.5.68-2.48,1.82-2.62.39-.06.79.07,1.07.32.31.27.48.7.48,1.23v8.7c0,2.46,2.03,3.57,3.91,3.57s3.36-.85,4.05-2.29c.27-.57-.12-1-.29-1.19-.24-.26-.55-.6-1.06-.34Z" fill="#fff" /><line x1="39.3" y1="94.52" x2="39.42" y2="95.88" fill="none" /><path d="m76.65,59.96s.04.01.05.03c0,0,.01.03.03.07.01.03.02.07.02.07,0,.02,0,.04-.02.05l-9.87,7.19,3.79,11.61s0,.04-.02.06c0,0-.03.02-.06.05-.03.02-.06.04-.06.04-.02.01-.04.01-.06,0l-9.89-7.17-9.87,7.2s-.04.01-.06,0c0,0-.03-.02-.06-.04-.03-.02-.06-.05-.06-.05-.02-.01-.02-.04-.02-.06l3.76-11.62-9.89-7.16s-.02-.03-.02-.05c0,0,0-.04.02-.07.01-.04.03-.07.03-.07,0-.02.03-.03.05-.03h12.21s3.75-11.63,3.75-11.63c0-.02.02-.03.05-.03,0,0,.04,0,.07,0,.04,0,.07,0,.07,0,.02,0,.04.01.05.03l3.79,11.61,12.21-.02Z" fill="none" /><path d="m60.6,48.34s-.04,0-.07,0c-.04,0-.07,0-.07,0-.02,0-.04.01-.05.03l-3.75,11.62h-12.21s-.04.02-.05.04c0,0-.02.03-.03.07-.01.03-.02.07-.02.07,0,.02,0,.04.02.05l9.89,7.16-3.76,11.62s0,.04.02.06c0,0,.03.02.06.05.03.02.06.04.06.04.02.01.04.01.06,0l9.87-7.2,9.89,7.17s.04.01.06,0c0,0,.03-.02.06-.04.03-.02.06-.05.06-.05.02-.01.02-.04.02-.06l-3.79-11.61,9.87-7.19s.02-.04.02-.05c0,0,0-.04-.02-.07-.01-.04-.03-.07-.03-.07,0-.02-.03-.03-.05-.03l-12.21.02-3.79-11.61s-.02-.03-.05-.03Z" fill="#fff" /><path d="m86.84,40.98c-.06.61-.12,1.23-.18,1.87-7.9-.75-16.72-1.17-26.02-1.17s-18.26.43-26.21,1.19c-1.13-11.87-1.95-17.95-1.97-18.11-.3-2.7,12.22-3.9,28.09-3.9,1.9,0,3.75.02,5.54.05,0-.02,0-.04,0-.05,0-.88.07-1.74.18-2.58-1.77-.03-3.66-.05-5.7-.05-26.07,0-28.7,2.93-29.69,4.03-.73.82-1.07,1.84-.96,2.87.11,1.05,8.78,91.87,8.96,93.78.26,3.11,4.23,3.43,8.08,3.73,3.4.27,8.1.42,13.58.42h.03c5.49,0,10.18-.14,13.58-.42,3.85-.31,7.83-.63,8.08-3.73.14-1.43,4.96-51.91,7.47-78.21-.94.16-1.9.26-2.88.29Zm-4.53,48.62h-1.01c-.45,0-.68.06-.74.4l-.13.92c-.01.07,0,.11,0,.16,0,.22.06.35.24.45l.89.49c.08.04.14.11.21.19l.25.38-2.3,24.12c-.12,1.26-.19,1.95-.19,1.95-.08,1.12-8.49,1.66-18.95,1.66h-.03c-10.46,0-18.87-.54-18.95-1.66,0,0-.06-.62-.17-1.76l-.41-4.27h.92c.45,0,.68-.06.74-.39l.13-1.29c.01-.07,0-.11,0-.16,0-.22-.06-.35-.25-.45l-.89-.49c-.49-.24-.71-.94-.71-1.6v-11.86c0-.28-.22-.5-.5-.5h-1.04s-.13-1.35-.13-1.35c.88-.5,1.5-1.45,1.5-2.51,0-1.25-.84-2.29-1.99-2.68l-.11-.03-.3-4.29h44.36l-.43,4.59Zm.7-7.32h-44.88s-2.5-26.19-3.54-37.02c7.91-.75,16.74-1.18,26.07-1.18s18.02.42,25.88,1.16c-1.04,10.83-3.54,37.03-3.54,37.03Z" fill="#fff" /><path d="m86.54,2.97c-9.88,0-17.89,8.01-17.89,17.89s8.01,17.89,17.89,17.89,17.89-8.01,17.89-17.89S96.42,2.97,86.54,2.97Zm-.06,27.67c-3.76,0-6.4-1.73-6.4-4.71v-.32c0-.81.27-1.2.93-1.2h3.91v1.2c0,1.73.61,2.47,1.71,2.47s1.66-.93,1.66-3.49-1.05-3.71-2.73-3.71c-1.03,0-1.95.2-2.95.71l-1.51-1.29,1.46-9.18h9.28v3.61h-6.42l-.56,3.78c.78-.32,1.68-.49,2.71-.49,3.25,0,5.74,2.34,5.74,6.15,0,4.13-2.78,6.47-6.81,6.47Z" fill="#fff" /></svg>