<svg xmlns="http://www.w3.org/2000/svg" id="beer_3x" viewBox="0.0 0.0 128.0 128.0" width="65" height="65"><path d="m74.77,102.85c.16-.05.74-.24,1.41-.48.61-.22,1.1-.41,1.4-.78.18-.22.25-.89.04-1.59-.3-1.02-.76-1.72-1.36-2.06-.6-.34-1.31-.37-2.05-.07-.65.26-1.1.78-1.41,1.62-.41,1.1-.44,2.51-.22,3.13.27.72.7.71,2.2.23Z" fill="none" /><path d="m82.92,106.7c-.53-.41-1.27-.61-1.67-.19-.63.63-1.88,1.74-3.22,2.17-1.26.41-4.16.48-5-1.88-.08-.22-.09-.37-.05-.46.05-.09.17-.16.43-.23l.12-.03c.81-.24,2.71-.81,4.68-1.55,1.88-.7,3.56-1.57,4.1-1.92.94-.61,1.19-1.54.72-2.61-.67-1.51-3.35-6.37-9.42-5.2-3.98.76-6.88,4.33-6.88,8.5,0,4.61,2.61,7.98,6.99,9.01.63.15,1.28.22,1.93.22,3.07,0,6.24-1.59,7.77-4.07.43-.68,0-1.37-.5-1.76Zm-10.34-4.08c-.22-.62-.19-2.03.22-3.13.31-.85.76-1.36,1.41-1.62.74-.3,1.45-.27,2.05.07.6.35,1.06,1.04,1.36,2.06.21.7.14,1.37-.04,1.59-.31.37-.8.57-1.4.78-.67.24-1.25.43-1.41.48-1.5.47-1.93.49-2.2-.23Z" fill="#fff" /><path d="m65.28,108.57h0c-.12.06-.24.14-.36.22-.19.12-.44.3-.54.24-.09-.05-.12-.12-.12-.5v-8.9c0-2.52-.97-4.05-2.98-4.7-1.95-.61-4.35.51-5.15.88l-.73.36-.1-.22c-.13-.29-.33-.58-.82-.58h-5.18c-.43,0-.82.04-.9.53l-.13.96c-.01.09-.02.13-.02.19,0,.2.04.46.33.59l.57.33c.52.26.63,1.06.63,1.7v8.04c0,.53-.16,1.22-.63,1.45l-.87.49c-.22.12-.32.29-.32.6,0,.05,0,.09.01.15l.13,1.28c.08.47.46.51.87.51h7.28c.41,0,.79-.04.87-.52l.13-1.26c.01-.07.01-.11.01-.19,0-.28-.09-.45-.32-.57l-.88-.49c-.45-.22-.62-.92-.62-1.44v-6.41c0-1.48.67-2.45,1.8-2.58.39-.06.77.07,1.05.31.31.27.47.69.47,1.21v8.57c0,2.42,2,3.52,3.85,3.52s3.32-.84,3.99-2.25c.27-.56-.12-.99-.29-1.17-.24-.26-.54-.59-1.04-.34Z" fill="#fff" /><line x1="43.38" y1="94.18" x2="43.51" y2="95.52" fill="none" /><path d="m80.2,60.11s.04.01.05.03c0,0,.01.03.03.07.01.03.02.07.02.07,0,.02,0,.04-.02.05l-9.73,7.08,3.74,11.44s0,.04-.02.05c0,0-.03.02-.06.04-.03.02-.06.04-.06.04-.02.01-.04.01-.06,0l-9.74-7.07-9.73,7.09s-.04.01-.06,0c0,0-.03-.02-.06-.04-.03-.02-.06-.04-.06-.04-.02-.01-.02-.04-.02-.06l3.71-11.45-9.75-7.06s-.02-.03-.02-.05c0,0,0-.04.02-.07.01-.04.03-.07.03-.07,0-.02.03-.03.05-.03h12.04s3.7-11.47,3.7-11.47c0-.02.02-.03.05-.03,0,0,.04,0,.07,0,.04,0,.07,0,.07,0,.02,0,.04.01.05.03l3.73,11.45,12.04-.02Z" fill="none" /><path d="m64.39,48.66s-.04,0-.07,0c-.04,0-.07,0-.07,0-.02,0-.04.01-.05.03l-3.7,11.46h-12.04s-.04.02-.05.04c0,0-.02.03-.03.07-.01.03-.02.07-.02.07,0,.02,0,.04.02.05l9.75,7.06-3.71,11.45s0,.04.02.06c0,0,.03.02.06.04.03.02.06.04.06.04.02.01.04.01.06,0l9.73-7.09,9.74,7.07s.04.01.06,0c0,0,.03-.02.06-.04.03-.02.06-.04.06-.04.02-.01.02-.04.02-.05l-3.74-11.44,9.73-7.08s.02-.03.02-.05c0,0,0-.04-.02-.07-.01-.04-.03-.07-.03-.07,0-.02-.03-.03-.05-.03l-12.04.02-3.73-11.45s-.02-.03-.05-.03Z" fill="#fff" /><path d="m90.25,41.41c-.06.6-.12,1.21-.18,1.84-7.79-.74-16.48-1.15-25.65-1.15s-18,.42-25.84,1.17c-1.12-11.7-1.92-17.7-1.94-17.85-.29-2.66,12.04-3.84,27.68-3.84,1.87,0,3.7.02,5.46.05,0-.02,0-.03,0-.05,0-.87.07-1.71.18-2.55-1.74-.03-3.6-.05-5.62-.05-25.7,0-28.29,2.89-29.26,3.97-.72.81-1.06,1.81-.94,2.83.11,1.04,8.65,90.55,8.83,92.44.25,3.06,4.17,3.38,7.97,3.68,3.35.27,7.98.41,13.39.41h.03c5.41,0,10.04-.14,13.39-.41,3.79-.3,7.71-.62,7.97-3.68.13-1.41,4.89-51.17,7.36-77.09-.92.16-1.87.26-2.83.29Zm-4.47,47.93h-.99c-.44,0-.67.06-.72.39l-.13.91c-.01.07,0,.11,0,.16,0,.21.06.35.24.44l.87.49c.08.04.14.11.2.18l.25.38-2.27,23.77c-.12,1.24-.18,1.92-.18,1.92-.08,1.11-8.37,1.64-18.68,1.64h-.03c-10.31,0-18.6-.53-18.68-1.64,0,0-.06-.61-.17-1.74l-.4-4.21h.9c.44,0,.67-.05.72-.39l.13-1.27c.01-.07,0-.11,0-.16,0-.21-.06-.34-.24-.44l-.87-.49c-.49-.23-.7-.93-.7-1.58v-11.69c0-.27-.22-.5-.49-.5h-1.03s-.13-1.33-.13-1.33c.87-.49,1.47-1.43,1.47-2.47,0-1.23-.83-2.25-1.96-2.64l-.11-.03-.3-4.23h43.72l-.43,4.52Zm.69-7.22h-44.23s-2.47-25.81-3.49-36.49c7.79-.74,16.5-1.16,25.7-1.16s17.76.41,25.51,1.14c-1.02,10.68-3.49,36.5-3.49,36.5Z" fill="#fff" /><path d="m89.95,3.94c-9.74,0-17.63,7.89-17.63,17.63s7.89,17.63,17.63,17.63,17.63-7.89,17.63-17.63-7.89-17.63-17.63-17.63Zm-.3,27.14c-3.8,0-6.5-1.71-6.5-4.65v-.22c0-.99.24-1.35.99-1.35h3.75v1.35c0,1.52.7,2.33,1.85,2.33s1.73-.94,1.73-2.74c0-2.05-.79-2.98-2.96-3.1l-1.23-.07v-2.77l1.11-.07c1.73-.12,2.33-.87,2.33-3.25,0-1.78-.36-2.48-1.25-2.48s-1.3.79-1.3,2.38v1.37h-3.75c-.7,0-.99-.34-.99-1.18v-.19c0-2.86,2.5-4.91,6.21-4.91s6.02,1.88,6.02,4.81c0,2.17-1.32,3.73-3.13,4.21v.1c2.31.55,3.88,2.21,3.88,4.79,0,3.39-2.89,5.63-6.76,5.63Z" fill="#fff" /></svg>