<svg xmlns="http://www.w3.org/2000/svg" id="beer_2x" viewBox="0.0 0.0 128.0 128.0" width="65" height="65"><path d="m73.96,103.56c.16-.05.73-.23,1.4-.47.6-.22,1.09-.41,1.39-.78.18-.22.25-.89.04-1.58-.3-1.02-.76-1.7-1.35-2.05-.6-.34-1.3-.37-2.03-.07-.65.26-1.09.77-1.4,1.61-.41,1.09-.44,2.49-.22,3.11.26.71.69.7,2.18.23Z" fill="none" /><path d="m82.04,107.38c-.53-.41-1.26-.6-1.66-.19-.62.63-1.87,1.73-3.2,2.15-1.25.4-4.13.48-4.97-1.87-.08-.22-.09-.37-.05-.46.05-.09.17-.16.42-.23l.12-.03c.81-.24,2.69-.8,4.65-1.54,1.87-.7,3.54-1.55,4.07-1.91.93-.61,1.18-1.53.72-2.59-.67-1.5-3.33-6.32-9.35-5.17-3.96.76-6.83,4.3-6.83,8.44,0,4.58,2.59,7.92,6.94,8.95.62.15,1.27.22,1.92.22,3.05,0,6.19-1.57,7.71-4.04.43-.67,0-1.36-.49-1.75Zm-10.27-4.05c-.22-.62-.19-2.01.22-3.11.31-.84.76-1.35,1.4-1.61.74-.3,1.44-.27,2.03.07.6.34,1.05,1.03,1.35,2.05.21.69.14,1.36-.04,1.58-.3.37-.79.56-1.39.78-.67.24-1.24.42-1.4.47-1.49.47-1.92.48-2.18-.23Z" fill="#fff" /><path d="m64.53,109.24h0c-.12.06-.24.14-.36.22-.19.12-.44.3-.53.24-.09-.05-.12-.12-.12-.5v-8.84c0-2.5-.97-4.03-2.96-4.66-1.93-.61-4.32.51-5.11.88l-.72.35-.1-.22c-.13-.29-.32-.58-.81-.58h-5.14c-.43,0-.81.04-.9.53l-.13.95c-.01.09-.02.12-.02.19,0,.2.04.45.33.59l.56.32c.51.25.62,1.06.62,1.68v7.99c0,.52-.16,1.22-.62,1.44l-.87.48c-.22.12-.32.29-.32.6,0,.05,0,.09.01.15l.13,1.27c.08.47.46.5.87.5h7.23c.41,0,.79-.04.87-.52l.12-1.25c.01-.07.01-.11.01-.19,0-.28-.09-.45-.31-.57l-.88-.49c-.45-.22-.61-.91-.61-1.43v-6.36c0-1.47.67-2.43,1.78-2.56.39-.06.77.07,1.04.31.31.27.47.69.47,1.2v8.51c0,2.4,1.98,3.5,3.83,3.5s3.29-.84,3.96-2.24c.26-.56-.12-.98-.28-1.16-.24-.26-.54-.58-1.03-.34Z" fill="#fff" /><line x1="42.79" y1="94.95" x2="42.91" y2="96.28" fill="none" /><path d="m79.34,61.13s.04.01.05.03c0,0,.01.03.03.07.01.03.02.07.02.07,0,.02,0,.04-.02.05l-9.66,7.03,3.71,11.36s0,.04-.02.05c0,0-.03.02-.06.04-.03.02-.06.04-.06.04-.02.01-.04.01-.06,0l-9.68-7.02-9.66,7.04s-.04.01-.06,0c0,0-.03-.02-.06-.04-.03-.02-.06-.04-.06-.04-.02-.01-.02-.04-.02-.05l3.68-11.37-9.68-7.01s-.02-.03-.02-.05c0,0,0-.04.02-.07.01-.04.03-.07.03-.07,0-.02.03-.03.05-.03h11.95s3.67-11.39,3.67-11.39c0-.02.02-.03.05-.03,0,0,.04,0,.07,0,.04,0,.07,0,.07,0,.02,0,.04.01.04.03l3.7,11.36,11.95-.02Z" fill="none" /><path d="m63.64,49.75s-.04,0-.07,0c-.04,0-.07,0-.07,0-.02,0-.04.01-.05.03l-3.67,11.37h-11.95s-.04.02-.05.04c0,0-.02.03-.03.07-.01.03-.02.07-.02.07,0,.02,0,.04.02.05l9.68,7.01-3.68,11.37s0,.04.02.05c0,0,.03.02.06.04.03.02.06.04.06.04.02.01.04.01.06,0l9.66-7.04,9.68,7.02s.04.01.06,0c0,0,.03-.02.06-.04.03-.02.06-.04.06-.04.02-.01.02-.04.02-.05l-3.71-11.36,9.66-7.03s.02-.03.02-.05c0,0,0-.04-.02-.07-.01-.04-.03-.07-.03-.07,0-.02-.03-.03-.05-.03l-11.95.02-3.7-11.36s-.02-.03-.04-.03Z" fill="#fff" /><path d="m89.03,5.35c-9.67,0-17.51,7.84-17.51,17.51s7.84,17.51,17.51,17.51,17.51-7.84,17.51-17.51-7.84-17.51-17.51-17.51Zm5.94,26.66h-12.35v-2.39l2.58-2.92c3.25-3.68,4.76-6.52,4.76-9.03,0-1.6-.5-2.27-1.34-2.27-.88,0-1.39.74-1.39,2.29v1.51h-3.73c-.36,0-.6-.12-.74-.26-.19-.19-.26-.48-.26-.88v-.33c0-2.94,2.6-4.83,6.33-4.83,3.35,0,6.02,1.72,6.02,4.92,0,2.87-1.79,5.71-5.93,9.53l-1.41,1.31h3.78c.41,0,.65-.1.81-.5l.26-.72c.14-.38.31-.79.45-1.1h2.15v5.66Z" fill="#fff" /><path d="m89.32,42.55c-.06.6-.12,1.2-.18,1.83-7.73-.73-16.36-1.14-25.47-1.14s-17.87.42-25.66,1.16c-1.11-11.62-1.91-17.57-1.93-17.73-.29-2.64,11.96-3.82,27.49-3.82,1.86,0,3.67.02,5.42.05,0-.02,0-.03,0-.05,0-.86.07-1.7.18-2.53-1.73-.03-3.58-.05-5.58-.05-25.52,0-28.09,2.87-29.05,3.95-.72.8-1.05,1.8-.94,2.81.11,1.03,8.59,89.91,8.77,91.78.25,3.04,4.14,3.35,7.91,3.65,3.33.27,7.93.41,13.3.41h.03c5.37,0,9.97-.14,13.29-.41,3.77-.3,7.66-.61,7.91-3.66.13-1.4,4.85-50.81,7.31-76.55-.92.16-1.86.26-2.81.28Zm-4.44,47.59h-.98c-.44,0-.66.06-.72.39l-.13.9c-.01.07,0,.11,0,.16,0,.21.06.34.24.44l.87.48c.08.04.14.11.2.18l.25.38-2.25,23.6c-.12,1.23-.18,1.91-.18,1.91-.08,1.1-8.31,1.62-18.55,1.62h-.03c-10.23,0-18.47-.52-18.55-1.62,0,0-.06-.61-.16-1.73l-.4-4.18h.9c.44,0,.66-.05.72-.38l.13-1.26c.01-.07,0-.11,0-.16,0-.21-.06-.34-.24-.44l-.87-.48c-.48-.23-.7-.92-.7-1.56v-11.61c0-.27-.22-.49-.49-.49h-1.02s-.13-1.32-.13-1.32c.86-.49,1.46-1.42,1.46-2.45,0-1.22-.82-2.24-1.95-2.62l-.11-.03-.29-4.2h43.41l-.43,4.49Zm.68-7.17h-43.92s-2.45-25.63-3.46-36.23c7.74-.74,16.38-1.15,25.52-1.15s17.64.41,25.33,1.14c-1.01,10.6-3.46,36.25-3.46,36.25Z" fill="#fff" /></svg>