<svg xmlns="http://www.w3.org/2000/svg" version="1.1" id="boat" x="0px" y="0px" viewBox="0.0 0.0 128.0 128.0" style="enable-background:new 0 0 128 128;" xml:space="preserve" width="65" height="65">
<style type="text/css">
	.st0{fill:#FFFFFF;}
</style>
<path class="st0" d="M47.4,42.8h33c0.8,0,1.4-0.6,1.4-1.4s-0.6-1.4-1.4-1.4h-33c-0.8,0-1.4,0.6-1.4,1.4S46.6,42.8,47.4,42.8z" />
<path class="st0" d="M122.8,80.8c-3.2,0-4.9,0.6-6.4,1.2c-1.4,0.5-2.7,1-5.3,1c-2.6,0-3.9-0.5-5.3-1c-1.5-0.6-3.2-1.2-6.4-1.2  c-0.6,0-1.2,0-1.8,0.1l2.4-15.2c0.1-0.7-0.4-1.4-1.1-1.5c-0.2,0-1.6-0.3-3.7-0.7l-2-13c-0.2-1.7-1.5-4.8-5.5-4.9c0,0,0,0,0,0H40.2  c0,0,0,0,0,0c-4,0.1-5.4,3.2-5.5,4.9l-2,12.9c-2.4,0.4-3.9,0.7-4.2,0.8c-0.7,0.1-1.2,0.8-1.1,1.6L30,80.8c-0.4,0-0.8,0-1.3,0  c-3.2,0-4.9,0.6-6.4,1.2c-1.4,0.5-2.7,1-5.4,1s-4-0.5-5.4-1c-1.5-0.6-3.2-1.2-6.4-1.2c-0.8,0-1.4,0.6-1.4,1.4s0.6,1.4,1.4,1.4  c2.7,0,4,0.5,5.4,1c1.5,0.6,3.2,1.2,6.4,1.2s4.9-0.6,6.4-1.2c1.4-0.5,2.7-1,5.4-1s4,0.5,5.4,1c1.5,0.6,3.2,1.2,6.4,1.2  c3.2,0,4.9-0.6,6.4-1.2c1.4-0.5,2.7-1,5.4-1c2.7,0,4,0.5,5.4,1c1.4,0.5,3,1.1,6,1.2c0.1,0,0.2,0,0.3,0c0.1,0,0.1,0,0.2,0  c3.1,0,4.8-0.6,6.3-1.2c1.4-0.5,2.7-1,5.4-1s4,0.5,5.4,1c1.5,0.6,3.2,1.2,6.4,1.2c3.2,0,4.9-0.6,6.4-1.2c1.4-0.5,2.7-1,5.4-1  s4,0.5,5.4,1c1.4,0.5,3.1,1.2,6.1,1.2c0,0,0,0,0.1,0c0,0,0.1,0,0.1,0c0,0,0.1,0,0.1,0c0,0,0,0,0.1,0c3,0,4.7-0.7,6.1-1.2  c1.4-0.5,2.7-1,5.4-1c0.8,0,1.4-0.6,1.4-1.4S123.6,80.8,122.8,80.8L122.8,80.8z M96.6,70.6c-4-0.7-22.9-4.2-31.3-4.6v-4.1  c8.2,0.4,26.8,3.7,31.9,4.6L96.6,70.6L96.6,70.6z M63.9,59.1c-2,0-5,0.3-8.4,0.7l0.8-11.6h15.3l0.6,11.6  C68.9,59.4,66,59.1,63.9,59.1L63.9,59.1z M90.5,50.7C90.5,50.7,90.5,50.8,90.5,50.7l1.9,12.2C87.6,62.1,81,61,75,60.2l-0.7-11.9  h13.3C90.1,48.3,90.5,50.4,90.5,50.7L90.5,50.7z M37.3,50.8C37.3,50.8,37.3,50.8,37.3,50.8c0-0.3,0.3-2.5,2.9-2.6h13.3l-0.8,11.9  C46.9,61,40.3,62,35.5,62.9L37.3,50.8L37.3,50.8z M54,62.8C54,62.8,54,62.8,54,62.8c0.2,0,0.3,0,0.4,0c3.2-0.4,6-0.7,8.2-0.8V66  c-8.4,0.4-27.4,3.8-31.6,4.5l-0.7-4C34,65.9,45.1,63.9,54,62.8z M52.4,80.8C52.4,80.8,52.4,80.8,52.4,80.8  C52.3,80.8,52.3,80.8,52.4,80.8c-0.1,0-0.1,0-0.1,0c0,0,0,0,0,0c-3.1,0-4.8,0.6-6.3,1.2c-1.4,0.5-2.7,1-5.4,1c-2.7,0-4-0.5-5.4-1  c-0.7-0.3-1.4-0.5-2.3-0.8c0,0,0-0.1,0-0.1l-1.4-7.9c4.1-0.7,23-4.1,31.2-4.5v14.2c-1.7-0.2-2.8-0.5-3.9-1  C57.2,81.4,55.5,80.8,52.4,80.8L52.4,80.8z M93.1,82c-1.4,0.5-2.7,1-5.4,1s-4-0.5-5.4-1c-1.5-0.6-3.2-1.2-6.4-1.2  c-3.2,0-4.9,0.6-6.4,1.2c-1.2,0.4-2.3,0.9-4.2,1V68.7c8.2,0.4,27.1,3.8,30.8,4.5l-1.3,8.1C94.2,81.6,93.6,81.8,93.1,82L93.1,82z" />
</svg>