<svg xmlns="http://www.w3.org/2000/svg" id="clock" viewBox="0.0 0.0 128.0 128.0" width="65" height="65"><g id="clock-2"><path d="m101.37,27.14c-.14-.2-.31-.37-.51-.51-20.43-20.2-53.3-20.2-73.73,0-.2.14-.37.31-.51.51-20.2,20.43-20.2,53.3,0,73.73.14.2.31.37.51.51,20.43,20.2,53.3,20.2,73.73,0,.2-.14.37-.31.51-.51,20.2-20.43,20.2-53.3,0-73.73Zm2.89,39.36h7.19c-.57,10.86-4.86,21.2-12.15,29.27l-5.07-5.07c-.98-.98-2.56-.98-3.54,0s-.98,2.56,0,3.54l5.07,5.07c-8.07,7.29-18.41,11.58-29.27,12.15v-7.19c0-1.38-1.12-2.5-2.5-2.5s-2.5,1.12-2.5,2.5v7.19c-10.86-.57-21.2-4.86-29.27-12.15l5.07-5.07c.98-.98.98-2.56,0-3.54s-2.56-.98-3.54,0l-5.07,5.07c-7.29-8.07-11.58-18.41-12.15-29.27h7.19c1.38,0,2.5-1.12,2.5-2.5s-1.12-2.5-2.5-2.5h-7.19c.57-10.86,4.86-21.2,12.15-29.27l5.07,5.07c.98.98,2.56.98,3.54,0s.98-2.56,0-3.54l-5.07-5.07c8.07-7.29,18.41-11.58,29.27-12.15v7.19c0,1.38,1.12,2.5,2.5,2.5s2.5-1.12,2.5-2.5v-7.19c10.86.57,21.2,4.86,29.27,12.15l-5.07,5.07c-.98.98-.98,2.56,0,3.54s2.56.98,3.54,0l5.07-5.07c7.29,8.07,11.58,18.41,12.15,29.27h-7.19c-1.38,0-2.5,1.12-2.5,2.5s1.12,2.5,2.5,2.5Z" fill="#fff" /><path d="m81.76,61.5h-15.26v-23.01c0-1.38-1.12-2.5-2.5-2.5s-2.5,1.12-2.5,2.5v25.51c0,1.38,1.12,2.5,2.5,2.5h17.76c1.38,0,2.5-1.12,2.5-2.5s-1.12-2.5-2.5-2.5Z" fill="#fff" /></g></svg>