<svg xmlns="http://www.w3.org/2000/svg" id="personal_guide" viewBox="0.0 0.0 128.0 128.0" width="65" height="65"><path d="m105.62,121.04h-51.36c-1.03,0-1.87-.84-1.87-1.87V41.04c0-1.03.84-1.87,1.87-1.87h51.36c1.03,0,1.87.84,1.87,1.87v78.13c0,1.03-.84,1.87-1.87,1.87Zm-49.49-3.74h47.63V42.91h-47.63v74.39Z" fill="#fff" /><path d="m27.13,109.38c-4.9,0-8.89-3.99-8.89-8.89v-58.84c0-.27.06-6.55,3.46-12.88,2.16-4.02,5.96-8.57,12.59-11.07,3.62-7,10.92-11.79,19.33-11.79,10.05,0,15.35,5.06,18.11,9.87h1.4c15.83,0,16.12,12.56,16.12,12.68,0,4.92-3.99,8.9-8.89,8.9s-8.89-3.99-8.89-8.89c0-.36-.08-4.6-2.01-8.96h-23.72c-3.22,0-6.14.4-8.74,1.19-.9,2.14-1.39,4.49-1.39,6.95l.4,72.83c0,4.91-3.99,8.9-8.89,8.9Zm5.33-86.71c-3.14,1.83-5.63,4.46-7.46,7.86-2.96,5.53-3.02,11.07-3.02,11.13v58.83c0,2.84,2.31,5.15,5.15,5.15s5.15-2.31,5.15-5.15l-.4-72.83c0-1.72.2-3.39.58-4.99Zm41.01-3.15c1.71,4.66,1.75,8.76,1.75,8.95,0,2.85,2.31,5.16,5.15,5.16s5.15-2.31,5.15-5.15h0s-.07-2.3-1.6-4.52c-1.99-2.88-5.5-4.38-10.45-4.44Zm-19.85-9.88c-5.61,0-10.63,2.58-13.94,6.62,1.85-.31,3.87-.48,6.06-.48h21.53c-2.61-3.39-6.82-6.14-13.65-6.14Z" fill="#fff" /><path d="m79.91,51.82c-1.03,0-1.87-.84-1.87-1.87v-17.47c0-1.03.84-1.87,1.87-1.87s1.87.84,1.87,1.87v17.47c0,1.03-.84,1.87-1.87,1.87Z" fill="#fff" /><path d="m88.08,52.66h-15.94c-1.03,0-1.87-.84-1.87-1.87s.84-1.87,1.87-1.87h15.94c1.03,0,1.87.84,1.87,1.87s-.84,1.87-1.87,1.87Z" fill="#fff" /><path d="m73.65,93.76h2.74l-6,14.54h-2.23l-6-14.54h2.81l4.35,11.1,4.33-11.1Z" fill="#fff" /><path d="m81.55,93.76v14.44h-2.54v-14.44h2.54Z" fill="#fff" /><path d="m90.81,103.56h-2.87v4.64h-2.54v-14.44h5.69c3.36,0,5.49,1.9,5.49,4.85,0,3.26-2.6,4.95-5.78,4.95Zm.08-7.49h-2.95v5.2h2.95c1.92,0,3.12-1.05,3.12-2.6,0-1.71-1.22-2.6-3.12-2.6Z" fill="#fff" /></svg>