<?xml version="1.0" encoding="UTF-8"?>
<svg width="31px" height="50px" viewBox="0 0 31 50" version="1.1" xmlns="http://www.w3.org/2000/svg" xmlns:xlink="http://www.w3.org/1999/xlink">
    <title>Combined Shape</title>
    <g id="Meetings-&amp;-Events" stroke="none" stroke-width="1" fill="none" fill-rule="evenodd">
        <g id="hex-room-1-desktop" transform="translate(-990.000000, -2199.000000)" fill="#FFFFFF">
            <g id="Properties" transform="translate(432.000000, 1672.000000)">
                <g id="icon" transform="translate(548.000000, 527.000000)">
                    <path d="M27.0843502,49.1641808 C27.3109923,49.1641808 27.492131,49.3488197 27.4886806,49.5754618 C27.4842554,49.8021038 27.2969913,49.9867428 27.0703492,49.9867428 L27.0703492,49.9867428 L22.2364848,49.9867428 C22.0098427,49.9867428 21.8287041,49.8021038 21.8321545,49.5754618 C21.8365797,49.3488197 22.0238438,49.1641808 22.2513609,49.1641808 L22.2513609,49.1641808 Z M27.0489101,44.5860982 L27.1075395,45.0638842 L27.048035,48.4792666 L26.5684989,48.5457716 L22.377808,48.5457716 L22.3183035,48.0679856 L22.377808,44.6526032 L22.8582192,44.5860982 L27.0489101,44.5860982 Z M21.4406123,45.5132306 C21.6672544,45.5132306 21.8483931,45.6978695 21.8448928,45.9245116 L21.8448928,45.9245116 L21.8090151,47.9721659 C21.8055148,48.198808 21.6173757,48.3834469 21.3907336,48.3834469 C21.1632164,48.3834469 20.9820778,48.198808 20.9864531,47.9721659 L20.9864531,47.9721659 L21.0223308,45.9245116 C21.0258311,45.6978695 21.2139703,45.5132306 21.4406123,45.5132306 Z M28.0222459,45.5132306 C28.248888,45.5132306 28.4300267,45.6978695 28.4265264,45.9245116 L28.4265264,45.9245116 L28.3906487,47.9721659 C28.3871484,48.198808 28.1990093,48.3834469 27.9723672,48.3834469 C27.74485,48.3834469 27.5637114,48.198808 27.5680867,47.9721659 L27.5680867,47.9721659 L27.6039644,45.9245116 C27.6074647,45.6978695 27.7956038,45.5132306 28.0222459,45.5132306 Z M30.0569493,6.68139111 C31.8132067,6.68139111 33.2159374,8.10949875 33.1853101,9.86575613 L33.1853101,9.86575613 L32.6681461,39.5042401 C32.6375188,41.2596224 31.1840342,42.6877301 29.4286519,42.6877301 L29.4286519,42.6877301 L19.5937856,42.6877301 C17.8375283,42.6877301 16.4347975,41.2596224 16.4654248,39.5042401 L16.4654248,39.5042401 L16.9825888,9.86575613 C17.0132161,8.10949875 18.4667007,6.68139111 20.222083,6.68139111 L20.222083,6.68139111 Z M14.0543556,36.2992236 C14.2809977,36.2992236 14.4621363,36.4838625 14.4586361,36.7105046 C14.4542607,36.9380217 14.2669966,37.1217856 14.0403545,37.1217856 L14.0403545,37.1217856 L11.9927002,37.1217856 C11.7660581,37.1217856 11.5849195,36.9380217 11.5884197,36.7105046 C11.5927951,36.4838625 11.7800592,36.2992236 12.0075763,36.2992236 L12.0075763,36.2992236 Z M37.648759,36.2992236 C37.8754011,36.2992236 38.0565398,36.4838625 38.0530395,36.7105046 C38.0486642,36.9380217 37.8614001,37.1217856 37.634758,37.1217856 L37.634758,37.1217856 L35.5879787,37.1217856 C35.3613366,37.1217856 35.1793229,36.9380217 35.1836982,36.7105046 C35.1871985,36.4838625 35.3753377,36.2992236 35.6019797,36.2992236 L35.6019797,36.2992236 Z M10.5030754,30.5910808 C10.7297175,30.5910808 10.9108562,30.7757197 10.9073559,31.0023618 L10.9073559,31.0023618 L10.8233496,35.8362262 C10.8189742,36.0637433 10.630835,36.2475072 10.404193,36.2475072 C10.1775509,36.2475072 9.99641223,36.0637433 9.99991249,35.8362262 L9.99991249,35.8362262 L10.0847939,31.0023618 C10.0882942,30.7757197 10.2764333,30.5910808 10.5030754,30.5910808 Z M39.3528625,30.5910808 C39.5795046,30.5910808 39.7606432,30.7757197 39.7571429,31.0023618 L39.7571429,31.0023618 L39.6731366,35.8362262 C39.6687613,36.0637433 39.4806221,36.2475072 39.25398,36.2475072 C39.0273379,36.2475072 38.8461993,36.0637433 38.8496995,35.8362262 L38.8496995,35.8362262 L38.9345809,31.0023618 C38.9380812,30.7757197 39.1262204,30.5910808 39.3528625,30.5910808 Z M15.4181459,31.050928 L15.4759002,31.529589 L15.4032698,35.721155 L14.9237336,35.78766 L11.5083512,35.78766 L11.4505968,35.309874 L11.5232273,31.118308 L12.0027635,31.050928 L15.4181459,31.050928 Z M38.2478292,31.050928 L38.3064586,31.529589 L38.2338281,35.721155 L37.7534169,35.78766 L34.3389095,35.78766 L34.2811552,35.309874 L34.3537857,31.118308 L34.8333218,31.050928 L38.2478292,31.050928 Z M14.1694268,29.7173274 C14.3960689,29.7173274 14.5772075,29.9010913 14.5737072,30.1286084 C14.5693319,30.3552505 14.3820678,30.5398894 14.1545506,30.5398894 L14.1545506,30.5398894 L12.1077714,30.5398894 C11.8811293,30.5398894 11.6999906,30.3552505 11.7034909,30.1286084 C11.7078662,29.9010913 11.8951303,29.7173274 12.1217724,29.7173274 L12.1217724,29.7173274 Z M37.7635677,29.7173274 C37.9902098,29.7173274 38.1722235,29.9010913 38.1678482,30.1286084 C38.1643479,30.3552505 37.9762087,30.5398894 37.7495666,30.5398894 L37.7495666,30.5398894 L35.7027873,30.5398894 C35.4761453,30.5398894 35.2950066,30.3552505 35.2985069,30.1286084 C35.3028822,29.9010913 35.4901463,29.7173274 35.7167884,29.7173274 L35.7167884,29.7173274 Z M14.205392,27.6601349 C14.4320341,27.6601349 14.6131727,27.8447738 14.6096725,28.0714159 C14.6052971,28.298058 14.418033,28.4826969 14.1905159,28.4826969 L14.1905159,28.4826969 L12.1437366,28.4826969 C11.9170945,28.4826969 11.7359558,28.298058 11.7394561,28.0714159 C11.7438314,27.8447738 11.9310956,27.6601349 12.1577376,27.6601349 L12.1577376,27.6601349 Z M37.7994454,27.6601349 C38.0260875,27.6601349 38.2081012,27.8447738 38.2037259,28.0714159 C38.2002256,28.298058 38.0120864,28.4826969 37.7854443,28.4826969 L37.7854443,28.4826969 L35.7386651,28.4826969 C35.512023,28.4826969 35.3308843,28.298058 35.3343846,28.0714159 C35.3387599,27.8447738 35.526024,27.6601349 35.7526661,27.6601349 L35.7526661,27.6601349 Z M10.6538493,21.9524297 C10.8804914,21.9524297 11.06163,22.1370686 11.0581298,22.3637107 L11.0581298,22.3637107 L10.9741234,27.197575 C10.9697481,27.4242171 10.782484,27.608856 10.5549668,27.608856 C10.3283247,27.608856 10.1471861,27.4242171 10.1506864,27.197575 L10.1506864,27.197575 L10.2355678,22.3637107 C10.239068,22.1370686 10.4272072,21.9524297 10.6538493,21.9524297 Z M39.5036363,21.9524297 C39.7302784,21.9524297 39.9114171,22.1370686 39.9079168,22.3637107 L39.9079168,22.3637107 L39.8239105,27.197575 C39.8195351,27.4242171 39.632271,27.608856 39.4047539,27.608856 C39.1781118,27.608856 38.9969731,27.4242171 39.0004734,27.197575 L39.0004734,27.197575 L39.0853548,22.3637107 C39.0888551,22.1370686 39.2769943,21.9524297 39.5036363,21.9524297 Z M38.398603,22.4121893 L38.4572325,22.8908504 L38.384602,27.0815413 L37.9041908,27.1489213 L34.4896834,27.1489213 L34.4319291,26.6702603 L34.5045595,22.4795694 L34.9840957,22.4121893 L38.398603,22.4121893 Z M15.5689198,22.4121893 L15.6266741,22.8908504 L15.5540436,27.0815413 L15.0745075,27.1489213 L11.6591251,27.1489213 L11.6013707,26.6702603 L11.6740012,22.4795694 L12.1535373,22.4121893 L15.5689198,22.4121893 Z M14.3202006,21.0785888 C14.5468427,21.0785888 14.7279814,21.2632277 14.7244811,21.4898698 C14.7201058,21.7165119 14.5328417,21.9011508 14.3053245,21.9011508 L14.3053245,21.9011508 L12.2585452,21.9011508 C12.0319032,21.9011508 11.8507645,21.7165119 11.8542648,21.4898698 C11.8586401,21.2632277 12.0459042,21.0785888 12.2725463,21.0785888 L12.2725463,21.0785888 Z M37.9143415,21.0785888 C38.1409836,21.0785888 38.3229973,21.2632277 38.318622,21.4898698 C38.3151218,21.7165119 38.1269826,21.9011508 37.9003405,21.9011508 L37.9003405,21.9011508 L35.8535612,21.9011508 C35.6269191,21.9011508 35.4457805,21.7165119 35.4492807,21.4898698 C35.4536561,21.2632277 35.6409202,21.0785888 35.8675623,21.0785888 L35.8675623,21.0785888 Z M14.3637789,18.5840383 C14.590421,18.5840383 14.7715597,18.7686772 14.7680594,18.9953193 C14.7636841,19.2219614 14.5764199,19.4066003 14.3489028,19.4066003 L14.3489028,19.4066003 L12.3021235,19.4066003 C12.0754814,19.4066003 11.8943428,19.2219614 11.897843,18.9953193 C11.9022184,18.7686772 12.0894825,18.5840383 12.3161246,18.5840383 L12.3161246,18.5840383 Z M37.9599325,18.4702797 C38.1865746,18.4702797 38.3685883,18.6549186 38.364213,18.8815607 C38.3607127,19.1082028 38.1725735,19.2928417 37.9459314,19.2928417 L37.9459314,19.2928417 L35.8991521,19.2928417 C35.6725101,19.2928417 35.4913714,19.1082028 35.4948717,18.8815607 C35.499247,18.6549186 35.6865111,18.4702797 35.9131532,18.4702797 L35.9131532,18.4702797 Z M10.8122362,12.8757205 C11.0388783,12.8757205 11.220017,13.0603594 11.2165167,13.2870015 L11.2165167,13.2870015 L11.1325104,18.1208659 C11.128135,18.348383 10.9399959,18.5321469 10.7133538,18.5321469 C10.4867117,18.5321469 10.305573,18.348383 10.3090733,18.1208659 L10.3090733,18.1208659 L10.3939547,13.2870015 C10.397455,13.0603594 10.5855941,12.8757205 10.8122362,12.8757205 Z M39.6640359,12.7619619 C39.890678,12.7619619 40.0718167,12.9466009 40.0683164,13.1732429 L40.0683164,13.1732429 L39.9843101,18.0071073 C39.9799347,18.2346244 39.7917956,18.4183883 39.5651535,18.4183883 C39.3385114,18.4183883 39.1573727,18.2346244 39.160873,18.0071073 L39.160873,18.0071073 L39.2457544,13.1732429 C39.2492547,12.9466009 39.4373938,12.7619619 39.6640359,12.7619619 Z M15.7273942,13.3354802 L15.7851486,13.8141412 L15.7125181,18.0048321 L15.2329819,18.0722122 L11.8175995,18.0722122 L11.7598451,17.5935511 L11.8324756,13.4028602 L12.3120118,13.3354802 L15.7273942,13.3354802 Z M38.5590026,13.2223341 L38.6176321,13.7001201 L38.5450016,17.8916861 L38.0645904,17.9590662 L34.650083,17.9590662 L34.5923286,17.4804051 L34.6649591,13.2888391 L35.1444953,13.2223341 L38.5590026,13.2223341 Z M14.4786751,12.0018796 C14.7053172,12.0018796 14.8864558,12.1865186 14.8829556,12.4131606 C14.8785802,12.6398027 14.6913161,12.8244416 14.463799,12.8244416 L14.463799,12.8244416 L12.4170197,12.8244416 C12.1903776,12.8244416 12.0092389,12.6398027 12.0127392,12.4131606 C12.0171145,12.1865186 12.2043787,12.0018796 12.4310207,12.0018796 L12.4310207,12.0018796 Z M38.0747411,11.8881211 C38.3013832,11.8881211 38.4833969,12.07276 38.4790216,12.2994021 C38.4755213,12.5260442 38.2873822,12.7106831 38.0607401,12.7106831 L38.0607401,12.7106831 L36.0139608,12.7106831 C35.7873187,12.7106831 35.6061801,12.5260442 35.6096803,12.2994021 C35.6140557,12.07276 35.8013198,11.8881211 36.0279619,11.8881211 L36.0279619,11.8881211 Z M27.8012043,1.4540971 L27.8607088,1.93275818 L27.8012043,5.34726555 L27.3207931,5.41464563 L23.1301022,5.41464563 L23.0714728,4.93598455 L23.1309772,1.52147718 L23.6105134,1.4540971 L27.8012043,1.4540971 Z M28.7882787,1.61755942 C29.0157958,1.61755942 29.1969345,1.80219834 29.1925591,2.02884042 L29.1925591,2.02884042 L29.1566814,4.0756197 C29.1531812,4.30226178 28.965042,4.4869007 28.7383999,4.4869007 C28.5117578,4.4869007 28.3306192,4.30226178 28.3341194,4.0756197 L28.3341194,4.0756197 L28.3699971,2.02884042 C28.3734974,1.80219834 28.5616366,1.61755942 28.7882787,1.61755942 Z M22.2066451,1.61755942 C22.4341622,1.61755942 22.6153009,1.80219834 22.6109255,2.02884042 L22.6109255,2.02884042 L22.5750478,4.0756197 C22.5715476,4.30226178 22.3834084,4.4869007 22.1567663,4.4869007 C21.9301242,4.4869007 21.7489856,4.30226178 21.7524858,4.0756197 L21.7524858,4.0756197 L21.7883635,2.02884042 C21.7918638,1.80219834 21.980003,1.61755942 22.2066451,1.61755942 Z M27.9424399,0.0133885092 C28.169082,0.0133885092 28.3502206,0.198027426 28.3467703,0.424669509 C28.3423451,0.651311593 28.1550809,0.83595051 27.9275638,0.83595051 L27.9275638,0.83595051 L23.0945745,0.83595051 C22.8679324,0.83595051 22.6867938,0.651311593 22.6902441,0.424669509 C22.6946694,0.198027426 22.8819335,0.0133885092 23.1085756,0.0133885092 L23.1085756,0.0133885092 Z" id="Combined-Shape"></path>
                </g>
            </g>
        </g>
    </g>
</svg>