<?xml version="1.0" encoding="UTF-8"?>
<svg width="50px" height="40px" viewBox="0 0 50 40" version="1.1" xmlns="http://www.w3.org/2000/svg" xmlns:xlink="http://www.w3.org/1999/xlink">
    <title>Combined Shape</title>
    <g id="Meetings-&amp;-Events" stroke="none" stroke-width="1" fill="none" fill-rule="evenodd">
        <g id="hex-room-1-desktop" transform="translate(-433.000000, -2366.000000)" fill="#FFFFFF">
            <g id="Properties" transform="translate(432.000000, 1672.000000)">
                <g id="icon" transform="translate(0.000000, 688.000000)">
                    <path d="M10.9739187,38.0885642 C11.5214995,38.0885642 11.9597849,38.5345775 11.949849,39.0821583 L11.949849,39.0821583 L11.8604255,44.1958561 C11.8504895,44.7445409 11.3978522,45.1894502 10.8502714,45.1894502 L10.8502714,45.1894502 L4.34443786,45.1894502 C3.79575309,45.1894502 3.35857168,44.7445409 3.36850762,44.1958561 L3.36850762,44.1958561 L3.4568271,39.0821583 C3.46676304,38.5345775 3.91940036,38.0885642 4.46808513,38.0885642 L4.46808513,38.0885642 Z M29.4142531,38.0885642 C29.9618338,38.0885642 30.4001192,38.5345775 30.3912873,39.0821583 L30.3912873,39.0821583 L30.3018638,44.1958561 C30.2919279,44.7445409 29.8381865,45.1894502 29.2906058,45.1894502 L29.2906058,45.1894502 L22.7847722,45.1894502 C22.2371914,45.1894502 21.798906,44.7445409 21.808842,44.1958561 L21.808842,44.1958561 L21.8971614,39.0821583 C21.9070974,38.5345775 22.3608387,38.0885642 22.9095235,38.0885642 L22.9095235,38.0885642 Z M47.1176717,38.0885642 C47.6652525,38.0885642 48.1035379,38.5345775 48.093602,39.0821583 L48.093602,39.0821583 L48.0041785,44.1958561 C47.9942426,44.7445409 47.5416052,45.1894502 46.9940245,45.1894502 L46.9940245,45.1894502 L40.4881909,45.1894502 C39.9395061,45.1894502 39.5023247,44.7445409 39.5122606,44.1958561 L39.5122606,44.1958561 L39.6005801,39.0821583 C39.6105161,38.5345775 40.0631534,38.0885642 40.6118381,38.0885642 L40.6118381,38.0885642 Z M13.6169895,38.381012 C14.0243631,38.381012 14.3489372,38.7111061 14.3412092,39.1184797 L14.3412092,39.1184797 L14.2771776,42.789258 C14.2705537,43.1966316 13.9349396,43.5267257 13.527566,43.5267257 C13.1190885,43.5267257 12.7956184,43.1966316 12.8022423,42.789258 L12.8022423,42.789258 L12.8662739,39.1184797 C12.8740019,38.7111061 13.2096159,38.381012 13.6169895,38.381012 Z M1.81474719,38.381012 C2.22212078,38.381012 2.54669487,38.7111061 2.53896691,39.1184797 L2.53896691,39.1184797 L2.47493529,42.789258 C2.46831133,43.1966316 2.13269731,43.5267257 1.72532372,43.5267257 C1.31684613,43.5267257 0.993376039,43.1966316 1,42.789258 L1,42.789258 L1.06403162,39.1184797 C1.07175958,38.7111061 1.40737359,38.381012 1.81474719,38.381012 Z M32.0573238,38.381012 C32.4646974,38.381012 32.7892715,38.7111061 32.7815436,39.1184797 L32.7815436,39.1184797 L32.7175119,42.789258 C32.710888,43.1966316 32.375274,43.5267257 31.9679004,43.5267257 C31.5594228,43.5267257 31.2359527,43.1966316 31.2425767,42.789258 L31.2425767,42.789258 L31.3066083,39.1184797 C31.3143362,38.7111061 31.6499503,38.381012 32.0573238,38.381012 Z M20.2557439,38.381012 C20.6631175,38.381012 20.9876916,38.7111061 20.9810676,39.1184797 L20.9810676,39.1184797 L20.915932,42.789258 C20.9093081,43.1966316 20.573694,43.5267257 20.1663204,43.5267257 C19.7578429,43.5267257 19.4343728,43.1966316 19.4409967,42.789258 L19.4409967,42.789258 L19.5050284,39.1184797 C19.5127563,38.7111061 19.8483703,38.381012 20.2557439,38.381012 Z M49.7607425,38.381012 C50.1681161,38.381012 50.4926902,38.7111061 50.4849623,39.1184797 L50.4849623,39.1184797 L50.4209306,42.789258 C50.4143067,43.1966316 50.0786927,43.5267257 49.6713191,43.5267257 C49.2628415,43.5267257 48.9393714,43.1966316 48.9459953,42.789258 L48.9459953,42.789258 L49.010027,39.1184797 C49.0177549,38.7111061 49.3533689,38.381012 49.7607425,38.381012 Z M37.9583898,38.381012 C38.3657634,38.381012 38.6903375,38.7111061 38.6826095,39.1184797 L38.6826095,39.1184797 L38.6185779,42.789258 C38.6119539,43.1966316 38.2763399,43.5267257 37.8689663,43.5267257 C37.4604887,43.5267257 37.1370187,43.1966316 37.1436426,42.789258 L37.1436426,42.789258 L37.2076742,39.1184797 C37.2154022,38.7111061 37.5510162,38.381012 37.9583898,38.381012 Z M12.0997713,35.5048882 C12.5071449,35.5048882 12.8317189,35.8349823 12.823991,36.2423559 C12.817367,36.6497295 12.481753,36.9798235 12.0743794,36.9798235 L12.0743794,36.9798235 L3.40692659,36.9798235 C2.998449,36.9798235 2.67497891,36.6497295 2.68150293,36.2423559 C2.68933083,35.8349823 3.02494485,35.5048882 3.43231844,35.5048882 L3.43231844,35.5048882 Z M30.5401056,35.5048882 C30.9474792,35.5048882 31.2720533,35.8349823 31.2643253,36.2423559 C31.2577014,36.6497295 30.9220873,36.9798235 30.5147138,36.9798235 L30.5147138,36.9798235 L21.8472609,36.9798235 C21.4398873,36.9798235 21.1153132,36.6497295 21.1230412,36.2423559 C21.1296652,35.8349823 21.4652792,35.5048882 21.8737568,35.5048882 L21.8737568,35.5048882 Z M48.2435243,35.5048882 C48.6508979,35.5048882 48.975472,35.8349823 48.967744,36.2423559 C48.9611201,36.6497295 48.625506,36.9798235 48.2181324,36.9798235 L48.2181324,36.9798235 L39.5506796,36.9798235 C39.142202,36.9798235 38.8187319,36.6497295 38.8252559,36.2423559 C38.8330838,35.8349823 39.1686979,35.5048882 39.5760715,35.5048882 L39.5760715,35.5048882 Z M11.2311492,23.3364513 C11.779834,23.3364513 12.2170154,23.7813606 12.2070794,24.3300454 L12.2070794,24.3300454 L12.117656,29.4437432 C12.108824,29.991324 11.6550827,30.4373373 11.1075019,30.4373373 L11.1075019,30.4373373 L4.60166834,30.4373373 C4.05298358,30.4373373 3.61580216,29.991324 3.6257381,29.4437432 L3.6257381,29.4437432 L3.71516157,24.3300454 C3.72399352,23.7813606 4.17773484,23.3364513 4.72531561,23.3364513 L4.72531561,23.3364513 Z M47.3749022,23.3364513 C47.923587,23.3364513 48.3607684,23.7813606 48.3508325,24.3300454 L48.3508325,24.3300454 L48.261409,29.4437432 C48.252577,29.991324 47.7988357,30.4373373 47.2512549,30.4373373 L47.2512549,30.4373373 L40.7454214,30.4373373 C40.1967366,30.4373373 39.7595552,29.991324 39.7694911,29.4437432 L39.7694911,29.4437432 L39.8589146,24.3300454 C39.8677465,23.7813606 40.3214879,23.3364513 40.8690686,23.3364513 L40.8690686,23.3364513 Z M29.6720355,23.3026691 C30.2207203,23.3026691 30.6590057,23.7486824 30.6490698,24.2962632 L30.6490698,24.2962632 L30.5596463,29.409961 C30.5497103,29.9575418 30.095969,30.4035551 29.5483883,30.4035551 L29.5483883,30.4035551 L23.0436587,30.4035551 C22.4949739,30.4035551 22.0566885,29.9575418 22.0666244,29.409961 L22.0666244,29.409961 L22.1560479,24.2962632 C22.1648798,23.7486824 22.6186212,23.3026691 23.1673059,23.3026691 L23.1673059,23.3026691 Z M13.8744408,23.6288991 C14.2818144,23.6288991 14.6063885,23.9589932 14.5997645,24.3663668 L14.5997645,24.3663668 L14.5346289,28.0360411 C14.5280049,28.4434147 14.1923909,28.7735088 13.7850173,28.7735088 C13.3765397,28.7735088 13.0530696,28.4434147 13.0596936,28.0360411 L13.0596936,28.0360411 L13.1237252,24.3663668 C13.1314532,23.9589932 13.4670672,23.6288991 13.8744408,23.6288991 Z M2.07219847,23.6288991 C2.47957207,23.6288991 2.80414615,23.9589932 2.79641819,24.3663668 L2.79641819,24.3663668 L2.73238657,28.0360411 C2.72576261,28.4434147 2.39014859,28.7735088 1.982775,28.7735088 C1.57429741,28.7735088 1.25082732,28.4434147 1.25745128,28.0360411 L1.25745128,28.0360411 L1.3214829,24.3663668 C1.32921086,23.9589932 1.66482488,23.6288991 2.07219847,23.6288991 Z M50.0181938,23.6288991 C50.4255674,23.6288991 50.7501415,23.9589932 50.7424135,24.3663668 L50.7424135,24.3663668 L50.6783819,28.0360411 C50.671758,28.4434147 50.3361439,28.7735088 49.9287703,28.7735088 C49.5202928,28.7735088 49.1968227,28.4434147 49.2034466,28.0360411 L49.2034466,28.0360411 L49.2674782,24.3663668 C49.2752062,23.9589932 49.6108202,23.6288991 50.0181938,23.6288991 Z M38.2159515,23.6288991 C38.6233251,23.6288991 38.9478992,23.9589932 38.9401712,24.3663668 L38.9401712,24.3663668 L38.8761396,28.0360411 C38.8695156,28.4434147 38.5339016,28.7735088 38.126528,28.7735088 C37.7180504,28.7735088 37.3945803,28.4434147 37.4012043,28.0360411 L37.4012043,28.0360411 L37.4652359,24.3663668 C37.4729639,23.9589932 37.8085779,23.6288991 38.2159515,23.6288991 Z M32.3153271,23.5951169 C32.7227007,23.5951169 33.0472748,23.925211 33.0406508,24.3325846 L33.0406508,24.3325846 L32.9755152,28.0033629 C32.9688913,28.4107365 32.6332772,28.7408305 32.2259037,28.7408305 C31.8174261,28.7408305 31.493956,28.4107365 31.5005799,28.0033629 L31.5005799,28.0033629 L31.5646116,24.3325846 C31.5723395,23.925211 31.9079535,23.5951169 32.3153271,23.5951169 Z M20.5138576,23.5951169 C20.9212312,23.5951169 21.2458053,23.925211 21.2380773,24.3325846 L21.2380773,24.3325846 L21.1740457,28.0033629 C21.1674217,28.4107365 20.8318077,28.7408305 20.4244341,28.7408305 C20.0159565,28.7408305 19.6924864,28.4107365 19.6991104,28.0033629 L19.6991104,28.0033629 L19.763142,24.3325846 C19.77087,23.925211 20.106484,23.5951169 20.5138576,23.5951169 Z M12.3573329,20.7521129 C12.7647065,20.7521129 13.0892806,21.082207 13.0815527,21.4895806 C13.0749287,21.8969541 12.7393147,22.2270482 12.3319411,22.2270482 L12.3319411,22.2270482 L3.66448827,22.2270482 C3.25601068,22.2270482 2.93254059,21.8969541 2.93906461,21.4895806 C2.94689251,21.082207 3.28250652,20.7521129 3.68988012,20.7521129 L3.68988012,20.7521129 Z M48.5009756,20.7521129 C48.9083492,20.7521129 49.2329232,21.082207 49.2251953,21.4895806 C49.2185713,21.8969541 48.8829573,22.2270482 48.4755837,22.2270482 L48.4755837,22.2270482 L39.8081309,22.2270482 C39.3996533,22.2270482 39.0761832,21.8969541 39.0827072,21.4895806 C39.0905351,21.082207 39.4261491,20.7521129 39.8335227,20.7521129 L39.8335227,20.7521129 Z M30.7982193,20.7189931 C31.2055929,20.7189931 31.530167,21.0490872 31.522439,21.4564607 C31.515815,21.8638343 31.180201,22.1939284 30.7728274,22.1939284 L30.7728274,22.1939284 L22.1053746,22.1939284 C21.698001,22.1939284 21.3734269,21.8638343 21.3811549,21.4564607 C21.3877788,21.0490872 21.7233929,20.7189931 22.1318704,20.7189931 L22.1318704,20.7189931 Z M11.4886005,8.58367595 C12.0372852,8.58367595 12.4744667,9.02968931 12.4645307,9.57727008 L12.4645307,9.57727008 L12.3751072,14.6909679 C12.3662753,15.2385487 11.912534,15.684562 11.3649532,15.684562 L11.3649532,15.684562 L4.85911962,15.684562 C4.31043486,15.684562 3.87325344,15.2385487 3.88318938,14.6909679 L3.88318938,14.6909679 L3.97261285,9.57727008 C3.9814448,9.02968931 4.43518612,8.58367595 4.98276689,8.58367595 L4.98276689,8.58367595 Z M29.9289348,8.58367595 C30.4776196,8.58367595 30.915905,9.02968931 30.905969,9.57727008 L30.905969,9.57727008 L30.8165456,14.6909679 C30.8066096,15.2385487 30.3528683,15.684562 29.8052875,15.684562 L29.8052875,15.684562 L23.3005579,15.684562 C22.7518732,15.684562 22.3135878,15.2385487 22.3235237,14.6909679 L22.3235237,14.6909679 L22.4129472,9.57727008 C22.4217791,9.02968931 22.8755205,8.58367595 23.4242052,8.58367595 L23.4242052,8.58367595 Z M47.6323535,8.58367595 C48.1810383,8.58367595 48.6182197,9.02968931 48.6082837,9.57727008 L48.6082837,9.57727008 L48.5188603,14.6909679 C48.5100283,15.2385487 48.056287,15.684562 47.5087062,15.684562 L47.5087062,15.684562 L41.0028726,15.684562 C40.4541879,15.684562 40.0170065,15.2385487 40.0269424,14.6909679 L40.0269424,14.6909679 L40.1163659,9.57727008 C40.1251978,9.02968931 40.5789391,8.58367595 41.1265199,8.58367595 L41.1265199,8.58367595 Z M14.1320025,8.87612382 C14.5393761,8.87612382 14.8639502,9.20621787 14.8562222,9.61359147 L14.8562222,9.61359147 L14.7921906,13.2843698 C14.7855666,13.6917434 14.4499526,14.0218374 14.042579,14.0218374 C13.6341014,14.0218374 13.3106313,13.6917434 13.3172553,13.2843698 L13.3172553,13.2843698 L13.3812869,9.61359147 C13.3890149,9.20621787 13.7246289,8.87612382 14.1320025,8.87612382 Z M2.32976015,8.87612382 C2.73713374,8.87612382 3.06170783,9.20621787 3.05397987,9.61359147 L3.05397987,9.61359147 L2.98994825,13.2843698 C2.98332429,13.6917434 2.64771027,14.0218374 2.24033668,14.0218374 C1.83185909,14.0218374 1.508389,13.6917434 1.51501296,13.2843698 L1.51501296,13.2843698 L1.57904458,9.61359147 C1.58677254,9.20621787 1.92238655,8.87612382 2.32976015,8.87612382 Z M32.5723368,8.87612382 C32.9797104,8.87612382 33.3042845,9.20621787 33.2965565,9.61359147 L33.2965565,9.61359147 L33.2325249,13.2843698 C33.2259009,13.6917434 32.8902869,14.0218374 32.4829133,14.0218374 C32.0744357,14.0218374 31.7509657,13.6917434 31.7575896,13.2843698 L31.7575896,13.2843698 L31.8216212,9.61359147 C31.8293492,9.20621787 32.1649632,8.87612382 32.5723368,8.87612382 Z M20.7707569,8.87612382 C21.1781305,8.87612382 21.5027046,9.20621787 21.4949766,9.61359147 L21.4949766,9.61359147 L21.430945,13.2843698 C21.424321,13.6917434 21.088707,14.0218374 20.6813334,14.0218374 C20.2728558,14.0218374 19.9493857,13.6917434 19.9560097,13.2843698 L19.9560097,13.2843698 L20.0200413,9.61359147 C20.0277693,9.20621787 20.3633833,8.87612382 20.7707569,8.87612382 Z M50.2756451,8.87612382 C50.6830187,8.87612382 51.0075928,9.20621787 50.9998648,9.61359147 L50.9998648,9.61359147 L50.9358332,13.2843698 C50.9292092,13.6917434 50.5935952,14.0218374 50.1862216,14.0218374 C49.777744,14.0218374 49.4542739,13.6917434 49.4608979,13.2843698 L49.4608979,13.2843698 L49.5249295,9.61359147 C49.5326575,9.20621787 49.8682715,8.87612382 50.2756451,8.87612382 Z M38.4734028,8.87612382 C38.8807764,8.87612382 39.2053504,9.20621787 39.1976225,9.61359147 L39.1976225,9.61359147 L39.1335909,13.2843698 C39.1269669,13.6917434 38.7913529,14.0218374 38.3839793,14.0218374 C37.9755017,14.0218374 37.6520316,13.6917434 37.6586556,13.2843698 L37.6586556,13.2843698 L37.7226872,9.61359147 C37.7304152,9.20621787 38.0660292,8.87612382 38.4734028,8.87612382 Z M12.6147842,6 C13.0221578,6 13.3467319,6.33009405 13.339004,6.73746765 C13.33238,7.14484124 12.996766,7.47493529 12.5893924,7.47493529 L12.5893924,7.47493529 L3.92193955,7.47493529 C3.51346196,7.47493529 3.18999187,7.14484124 3.19651589,6.73746765 C3.20434379,6.33009405 3.5399578,6 3.9473314,6 L3.9473314,6 Z M31.0551186,6 C31.4624922,6 31.7870662,6.33009405 31.7805419,6.73746765 C31.7727143,7.14484124 31.4371003,7.47493529 31.0297267,7.47493529 L31.0297267,7.47493529 L22.3622739,7.47493529 C21.9549003,7.47493529 21.6303262,7.14484124 21.6380542,6.73746765 C21.6446781,6.33009405 21.9802921,6 22.3887697,6 L22.3887697,6 Z M48.7585372,6 C49.1659108,6 49.4904849,6.33009405 49.482757,6.73746765 C49.476133,7.14484124 49.140519,7.47493529 48.7331454,7.47493529 L48.7331454,7.47493529 L40.0656926,7.47493529 C39.657215,7.47493529 39.3337449,7.14484124 39.3402689,6.73746765 C39.3480968,6.33009405 39.6837108,6 40.0910844,6 L40.0910844,6 Z" id="Combined-Shape"></path>
                </g>
            </g>
        </g>
    </g>
</svg>