<svg width="57" height="56" viewBox="0 0 57 56" fill="none" xmlns="http://www.w3.org/2000/svg">
<mask id="mask0_845_2666" style="mask-type:alpha" maskUnits="userSpaceOnUse" x="0" y="0" width="57" height="56">
<rect x="0.333374" width="56" height="56" fill="#D9D9D9"/>
</mask>
<g mask="url(#mask0_845_2666)">
<path d="M28.3349 38.0513C28.666 38.0513 28.9429 37.9393 29.1657 37.7154C29.3886 37.4915 29.5 37.214 29.5 36.883C29.5 36.552 29.3881 36.275 29.1642 36.0522C28.9403 35.8293 28.6628 35.7179 28.3318 35.7179C28.0008 35.7179 27.7238 35.8299 27.501 36.0538C27.2781 36.2777 27.1667 36.5551 27.1667 36.8862C27.1667 37.2172 27.2787 37.4941 27.5026 37.717C27.7265 37.9398 28.0039 38.0513 28.3349 38.0513ZM28.3349 29.1666C28.666 29.1666 28.9429 29.0547 29.1657 28.8307C29.3886 28.6069 29.5 28.3294 29.5 27.9984C29.5 27.6674 29.3881 27.3904 29.1642 27.1676C28.9403 26.9447 28.6628 26.8333 28.3318 26.8333C28.0008 26.8333 27.7238 26.9453 27.501 27.1692C27.2781 27.3931 27.1667 27.6705 27.1667 28.0015C27.1667 28.3326 27.2787 28.6095 27.5026 28.8323C27.7265 29.0552 28.0039 29.1666 28.3349 29.1666ZM28.3349 20.282C28.666 20.282 28.9429 20.1701 29.1657 19.9462C29.3886 19.7222 29.5 19.4448 29.5 19.1137C29.5 18.7828 29.3881 18.5058 29.1642 18.283C28.9403 18.0601 28.6628 17.9487 28.3318 17.9487C28.0008 17.9487 27.7238 18.0606 27.501 18.2845C27.2781 18.5085 27.1667 18.7859 27.1667 19.1169C27.1667 19.4479 27.2787 19.7249 27.5026 19.9477C27.7265 20.1706 28.0039 20.282 28.3349 20.282ZM45.5642 44.3333H11.1026C10.066 44.3333 9.17871 43.9642 8.4406 43.2261C7.70245 42.488 7.33337 41.6006 7.33337 40.5641V34.5512C8.70642 34.0427 9.82747 33.1969 10.6965 32.0138C11.5655 30.8306 12 29.4927 12 28C12 26.5072 11.5655 25.1693 10.6965 23.9862C9.82747 22.803 8.70642 21.9572 7.33337 21.4487V15.4358C7.33337 14.3993 7.70245 13.512 8.4406 12.7739C9.17871 12.0357 10.066 11.6666 11.1026 11.6666H45.5642C46.6007 11.6666 47.488 12.0357 48.2261 12.7739C48.9643 13.512 49.3334 14.3993 49.3334 15.4358V21.4487C47.9603 21.9572 46.8393 22.803 45.9702 23.9862C45.1012 25.1693 44.6667 26.5072 44.6667 28C44.6667 29.4927 45.1012 30.8306 45.9702 32.0138C46.8393 33.1969 47.9603 34.0427 49.3334 34.5512V40.5641C49.3334 41.6006 48.9643 42.488 48.2261 43.2261C47.488 43.9642 46.6007 44.3333 45.5642 44.3333ZM45.5642 42C45.983 42 46.327 41.8654 46.5962 41.5961C46.8654 41.3269 47 40.9829 47 40.5641V36.05C45.5611 35.1944 44.4237 34.0569 43.5875 32.6375C42.7514 31.218 42.3334 29.6722 42.3334 28C42.3334 26.3277 42.7514 24.7819 43.5875 23.3625C44.4237 21.943 45.5611 20.8055 47 19.95V15.4358C47 15.017 46.8654 14.673 46.5962 14.4038C46.327 14.1346 45.983 14 45.5642 14H11.1026C10.6838 14 10.3398 14.1346 10.0705 14.4038C9.80132 14.673 9.66671 15.017 9.66671 15.4358V19.95C11.1056 20.8055 12.2431 21.943 13.0792 23.3625C13.9153 24.7819 14.3334 26.3277 14.3334 28C14.3334 29.6722 13.9153 31.218 13.0792 32.6375C12.2431 34.0569 11.1056 35.1944 9.66671 36.05V40.5641C9.66671 40.9829 9.80132 41.3269 10.0705 41.5961C10.3398 41.8654 10.6838 42 11.1026 42H45.5642Z" fill="#BBBCBD"/>
</g>
</svg>
