<?xml version="1.0" encoding="UTF-8"?>
<svg width="50px" height="43px" viewBox="0 0 50 43" version="1.1" xmlns="http://www.w3.org/2000/svg" xmlns:xlink="http://www.w3.org/1999/xlink">
    <title>Combined Shape</title>
    <g id="Meetings-&amp;-Events" stroke="none" stroke-width="1" fill="none" fill-rule="evenodd">
        <g id="hex-room-1-desktop" transform="translate(-432.000000, -2446.000000)" fill="#FFFFFF">
            <g id="Properties" transform="translate(432.000000, 1672.000000)">
                <g id="icon" transform="translate(0.000000, 770.000000)">
                    <path d="M29.1037056,33.8965364 C29.5273963,33.5826102 30.0443867,33.4486976 30.5591819,33.5200444 L30.5591819,33.5200444 L46.988721,35.8349762 C47.5035161,35.9074207 47.9568432,36.1774412 48.2641836,36.5956436 C48.571524,37.0138461 48.6966554,37.5286412 48.6154297,38.044534 L48.6154297,38.044534 L47.5990112,44.4811199 C47.5166879,44.9970127 47.2389839,45.4547303 46.8141955,45.7708519 C46.4662423,46.0287983 46.0557234,46.1660038 45.634228,46.1660038 C45.5431235,46.1660038 45.452019,46.159418 45.3598169,46.1473439 L45.3598169,46.1473439 L28.9302778,43.8324121 C28.4154826,43.7599676 27.9621556,43.4899471 27.6548152,43.070647 C27.3474748,42.6524446 27.2223433,42.1376494 27.303569,41.6228543 L27.303569,41.6228543 L28.3199876,35.1862684 C28.4023109,34.669278 28.6800149,34.2115603 29.1037056,33.8965364 Z M19.2048204,33.2389377 C19.7207132,33.1697862 20.2344108,33.3004058 20.647125,33.6154297 C21.0598392,33.9315513 21.3221762,34.3892689 21.3858396,34.9040641 L21.3858396,34.9040641 L22.1783387,41.3406499 C22.2420021,41.8565427 22.0982107,42.3713379 21.7766009,42.790638 C21.4538935,43.2077428 20.9906876,43.4788609 20.4736972,43.5513055 L20.4736972,43.5513055 L3.96293241,45.8662372 C3.87182794,45.8783113 3.77962582,45.8848971 3.6874237,45.8848971 C3.26702595,45.8848971 2.86089758,45.7487892 2.52172551,45.4897452 C2.10901127,45.1736237 1.8466743,44.715906 1.78301093,44.2000132 L1.78301093,44.2000132 L0.990511782,37.7634273 C0.926848415,37.2475345 1.06954217,36.733837 1.39224958,36.3145369 C1.71495699,35.8963345 2.17706521,35.626314 2.6951533,35.5538695 L2.6951533,35.5538695 Z M41.9657911,29.0431926 L42.5793743,29.0442902 L47.8217232,29.7830048 L47.8184303,30.3900021 L47.1400861,34.6774005 L46.5330888,34.685084 L46.526503,34.6839864 L41.580518,33.9869823 L41.268787,33.6093927 L41.2885446,33.3294934 L41.9657911,29.0431926 Z M7.47100343,28.7451822 L7.63016184,29.3335195 L8.15812873,33.6209179 L7.56649848,33.7910528 L2.29231786,34.5297674 L2.13315945,33.9425277 L1.60409492,29.6551293 L2.19572517,29.4849944 L7.47100343,28.7451822 Z M48.9433583,30.1610574 L49.0351689,30.1633386 C49.3194588,30.2039514 49.5137418,30.467386 49.4687384,30.7527735 L49.4687384,30.7527735 L49.06261,33.3223587 C49.0208995,33.583598 48.7947848,33.7723928 48.5390337,33.7723928 C48.5148855,33.7723928 48.4896397,33.7701976 48.4654915,33.7669046 C48.1812017,33.7262918 47.9869186,33.4628572 48.0319221,33.1774697 L48.0319221,33.1774697 L48.4380504,30.6078845 C48.4841515,30.3213993 48.7585626,30.1326045 49.0351689,30.1633386 Z M0.45837385,29.936236 C0.742663711,29.902209 1.00390304,30.0953944 1.0401253,30.3807819 L1.0401253,30.3807819 L1.35624685,32.9514647 C1.39137146,33.2368522 1.18720963,33.5002868 0.901822127,33.5408997 C0.877673953,33.5441926 0.852428135,33.5463879 0.828279962,33.5463879 C0.572528852,33.5463879 0.353000002,33.3575931 0.320070675,33.0963537 L0.320070675,33.0963537 L0.003949131,30.5256709 C-0.031175485,30.2402834 0.171888701,29.9768488 0.45837385,29.936236 Z M31.1445555,27.5186745 L31.7581387,27.5197721 L36.7052213,28.2167762 L37.014757,28.5976588 L36.9949994,28.8742651 L36.3188505,33.1528824 L35.7118532,33.1605659 L35.7052674,33.1594683 L30.7592824,32.4624642 L30.4475514,32.0848746 L30.467309,31.8049753 L31.1445555,27.5186745 Z M18.3454748,27.2206641 L18.5046332,27.8090014 L19.0326001,32.0942046 L18.4409698,32.2665347 L13.1667892,33.0052493 L13.0076308,32.4180096 L12.4785663,28.1306112 L13.0701965,27.9604763 L18.3454748,27.2206641 Z M40.6970678,28.9990578 L40.7903239,29.0015919 C41.0746138,29.0422047 41.2688968,29.3056393 41.2238934,29.5910268 L41.2238934,29.5910268 L40.817765,32.160612 C40.7760545,32.4218514 40.5499398,32.6106462 40.2941887,32.6106462 C40.2700405,32.6106462 40.2447947,32.6084509 40.2206465,32.6051579 C39.9363567,32.5645451 39.7420736,32.3011105 39.7870771,32.015723 L39.7870771,32.015723 L40.1932054,29.4461378 C40.2393065,29.1607503 40.5082293,28.9697602 40.7903239,29.0015919 Z M8.74328288,28.7752576 C9.0242798,28.7390354 9.28990971,28.9333184 9.32503433,29.2187059 L9.32503433,29.2187059 L9.64115587,31.7893887 C9.67628049,32.0747762 9.47211866,32.3393085 9.18673115,32.3788237 C9.16148534,32.3821166 9.13733716,32.3843119 9.11318899,32.3843119 C8.85743788,32.3843119 8.63790903,32.1955171 8.6049797,31.9342778 L8.6049797,31.9342778 L8.28885816,29.363595 C8.25373354,29.0782074 8.45789537,28.8147728 8.74328288,28.7752576 Z M38.1212595,28.6354191 L38.2142626,28.6388205 C38.4985525,28.6794333 38.6928355,28.9428679 38.6478321,29.2282554 L38.6478321,29.2282554 L38.2417037,31.7978406 C38.1999932,32.0590799 37.9738785,32.2478747 37.7181274,32.2478747 C37.6928816,32.2478747 37.6687334,32.2456795 37.6445852,32.2423865 C37.3602954,32.2017737 37.1660124,31.9383391 37.2110158,31.6529516 L37.2110158,31.6529516 L37.6171441,29.0833664 C37.6621476,28.7979789 37.9332657,28.6036958 38.2142626,28.6388205 Z M11.3324061,28.4116081 C11.6123054,28.3742882 11.8779353,28.5696689 11.9141576,28.856154 L11.9141576,28.856154 L12.2302791,31.4268368 C12.2654037,31.7122244 12.0623396,31.975659 11.7758544,32.0162718 C11.7517062,32.0195647 11.7275581,32.02176 11.7034099,32.02176 C11.4465611,32.02176 11.2270323,31.8329652 11.194103,31.5717259 L11.194103,31.5717259 L10.8779814,29.0010431 C10.8428568,28.7156556 11.0470186,28.4522209 11.3324061,28.4116081 Z M29.8768788,27.4733472 L29.9689785,27.4770738 C30.2532684,27.5176866 30.4475514,27.7811212 30.402548,28.0665087 L30.402548,28.0665087 L29.9975173,30.6360939 C29.9558068,30.8973333 29.7296921,31.0861281 29.4728433,31.0861281 C29.4486952,31.0861281 29.424547,31.0839328 29.4003988,31.0806399 C29.116109,31.040027 28.9218259,30.7765924 28.9657317,30.4912049 L28.9657317,30.4912049 L29.3718601,27.9216197 C29.4179611,27.6351346 29.6912745,27.4408515 29.9689785,27.4770738 Z M19.6177542,27.2507395 C19.8954582,27.2189079 20.1643811,27.4088003 20.1995057,27.6941878 L20.1995057,27.6941878 L20.5156272,30.2648706 C20.5507518,30.5502582 20.34659,30.8147904 20.0612025,30.8543056 C20.0359567,30.8575985 20.0118085,30.8597938 19.9876603,30.8597938 C19.7319092,30.8597938 19.5123804,30.670999 19.479451,30.4097597 L19.479451,30.4097597 L19.1633295,27.8390769 C19.1282049,27.5536894 19.3323667,27.2902547 19.6177542,27.2507395 Z M42.1114452,27.1386606 L42.2038702,27.1411946 L48.2584758,27.9951619 C48.5427657,28.0357747 48.7370487,28.2981117 48.6920453,28.5834992 C48.6503348,28.8447385 48.4242201,29.0335333 48.168469,29.0335333 C48.1443208,29.0335333 48.1201727,29.031338 48.0949268,29.0280451 L48.0949268,29.0280451 L42.0403212,28.1751755 C41.7560313,28.1345627 41.5617483,27.8711281 41.6067517,27.5857406 C41.6517551,27.3003531 41.9250685,27.109363 42.2038702,27.1411946 Z M7.39504645,26.9152995 C7.67275044,26.8790772 7.94057564,27.0744579 7.9767979,27.3598454 C8.01192251,27.6452329 7.80776068,27.9086675 7.52237318,27.9492803 L7.52237318,27.9492803 L1.43813111,28.8010523 C1.41288529,28.8043452 1.38873712,28.8065405 1.36458894,28.8065405 C1.10883783,28.8065405 0.888211338,28.6177457 0.856379655,28.3565064 C0.821255039,28.0711188 1.02431922,27.8087819 1.31080437,27.768169 L1.31080437,27.768169 Z M31.2910033,25.6132391 L31.3825248,25.6166765 L37.4371305,26.4706438 C37.7214203,26.5112566 37.9157034,26.7735936 37.8707,27.0589811 C37.8289895,27.3202204 37.6028748,27.5090152 37.3471237,27.5090152 C37.3229755,27.5090152 37.2988273,27.5068199 37.2735815,27.503527 L37.2735815,27.503527 L31.2189758,26.6506574 C30.9346859,26.6100446 30.7404029,26.34661 30.7854063,26.0612225 C30.8315074,25.7747373 31.1070161,25.5815519 31.3825248,25.6166765 Z M18.2695178,25.3907814 C18.5516124,25.3600473 18.815047,25.5488421 18.8512692,25.8353273 C18.8863939,26.1207148 18.682232,26.3841494 18.3968445,26.4247622 L18.3968445,26.4247622 L12.3126024,27.2765342 C12.2873566,27.2798271 12.2632085,27.2820224 12.2390603,27.2820224 C11.9833092,27.2820224 11.7626827,27.0932276 11.730851,26.8319883 C11.6957264,26.5466008 11.8987906,26.2842638 12.1852757,26.2436509 L12.1852757,26.2436509 Z M29.630026,12.8161688 C30.052619,12.5011449 30.5663165,12.3661347 31.0844046,12.4396769 L31.0844046,12.4396769 L47.5139437,14.7546086 C48.0287389,14.8270531 48.482066,15.0970736 48.7894064,15.5163737 C49.0967467,15.9345762 49.2218782,16.4493713 49.1406525,16.9641665 L49.1406525,16.9641665 L48.1242339,23.4007523 C47.9694661,24.3776557 47.1165965,25.0856363 46.1572555,25.0856363 C46.0672486,25.0856363 45.9761441,25.0790504 45.8850397,25.0669763 L45.8850397,25.0669763 L29.4555006,22.7520446 C28.389688,22.6016673 27.6608522,21.6093969 27.8287918,20.5424867 L27.8287918,20.5424867 L28.8452104,14.1048032 C28.9275337,13.5889104 29.2052377,13.1311927 29.630026,12.8161688 Z M19.5781293,11.85112 C20.1006079,11.7830661 20.6088172,11.9136857 21.0204338,12.2287096 C21.433148,12.5437335 21.695485,13.0014512 21.7591484,13.517344 L21.7591484,13.517344 L22.5516475,19.9539299 C22.6153109,20.4698227 22.4715195,20.9846178 22.1499097,21.4028203 C21.8272023,21.8210227 21.3639965,22.0910432 20.847006,22.1645854 L20.847006,22.1645854 L4.33624122,24.4784195 C4.24513674,24.4904935 4.15293463,24.4981771 4.06073251,24.4981771 C3.64033476,24.4981771 3.23420639,24.3620692 2.89503432,24.1019275 C2.48232008,23.7869036 2.21998311,23.3291859 2.15631974,22.8132931 L2.15631974,22.8132931 L1.36382059,16.3767073 C1.30015722,15.8608145 1.44285098,15.347117 1.76555839,14.9278168 C2.0882658,14.5096144 2.55037402,14.2395939 3.06846211,14.1660517 L3.06846211,14.1660517 Z M42.4907944,7.96304456 L43.1043775,7.96523985 L48.3533123,8.70395443 L48.3412382,9.31753756 L47.6639917,13.604936 L47.0515062,13.6027407 L47.0515062,13.6038384 L41.8080596,12.8651238 L41.8113526,12.2581265 L42.4907944,7.96304456 Z M7.84431224,7.35780352 L8.00347065,7.94614084 L8.49521528,11.9338824 L8.20653484,12.3444013 L7.93980729,12.4036741 L2.66672431,13.1423887 L2.50646825,12.5562467 L2.01582127,8.56960277 L2.2968182,8.16127911 L2.56903398,8.09761575 L7.84431224,7.35780352 Z M49.4669856,9.07941968 L49.5599526,9.08253193 C49.8442425,9.12314477 50.0385255,9.38657939 49.9935221,9.67196689 L49.9935221,9.67196689 L49.5873937,12.2426497 C49.5456832,12.5038891 49.3195685,12.6926839 49.0638174,12.6926839 C49.0396692,12.6926839 49.0144234,12.6904886 48.9902753,12.6871956 C48.7059854,12.6465828 48.5117024,12.3831482 48.5567058,12.0977607 L48.5567058,12.0977607 L48.9628342,9.52707785 C49.0089352,9.24169035 49.2789557,9.04850496 49.5599526,9.08253193 Z M0.831792424,8.54940612 C1.11608228,8.51318386 1.37732162,8.70746689 1.41244623,8.99395204 L1.41244623,8.99395204 L1.72966542,11.5635372 C1.76479004,11.8489247 1.5606282,12.1123594 1.2752407,12.1529722 C1.24999488,12.1562651 1.22584671,12.1584604 1.20169854,12.1584604 C0.945947425,12.1584604 0.726418576,11.9696656 0.693489248,11.7084263 L0.693489248,11.7084263 L0.37627006,9.13884108 C0.342243089,8.85345358 0.545307275,8.59001896 0.831792424,8.54940612 Z M32.0071941,6.42568403 L32.2838005,6.4399534 L37.5316376,7.17976562 L37.5195636,7.79334876 L36.8906134,11.7756021 L36.5075356,12.0928213 L36.2309292,12.0785519 L36.2309292,12.0796496 L30.9797991,11.3387397 L30.9929709,10.7251565 L31.6208234,6.74070793 L32.0071941,6.42568403 Z M18.7187836,5.83328542 L18.877942,6.42162274 L19.4070065,10.715607 L18.8142786,10.879156 L13.5411957,11.6178706 L13.3809396,11.0317286 L12.8902926,7.04508468 L13.1712895,6.63676101 L13.4435053,6.57309765 L18.7187836,5.83328542 Z M41.2227884,7.91749774 L41.3148881,7.92122431 C41.5991779,7.96183715 41.793461,8.22527177 41.7484576,8.51065928 L41.7484576,8.51065928 L41.3434268,11.0802445 C41.3017164,11.3414838 41.0756016,11.5302786 40.8198505,11.5302786 C40.7946047,11.5302786 40.7704565,11.5280833 40.7463084,11.5247904 C40.4620185,11.4841775 40.2677355,11.2207429 40.3127389,10.9353554 L40.3127389,10.9353554 L40.7177696,8.36577024 C40.7638707,8.07928509 41.0371841,7.88500205 41.3148881,7.92122431 Z M38.6469064,7.55602181 L38.738717,7.55801383 C39.0230069,7.59862667 39.2172899,7.86206129 39.1722865,8.14744879 L39.1722865,8.14744879 L38.7672558,10.7181316 C38.7255453,10.979371 38.4994306,11.1681658 38.2425818,11.1681658 C38.2184337,11.1681658 38.1942855,11.1659705 38.1701373,11.1626775 C37.8847498,11.1231624 37.6904668,10.8586301 37.7354702,10.5732426 L37.7354702,10.5732426 L38.1415986,8.00255975 C38.1876996,7.7160746 38.4621107,7.52837744 38.738717,7.55801383 Z M9.11659169,7.38787897 C9.39758861,7.35824258 9.66321852,7.54593975 9.69834314,7.8324249 L9.69834314,7.8324249 L10.0144647,10.4020101 C10.0495893,10.6873976 9.84542747,10.9508322 9.56003996,10.991445 C9.53479414,10.994738 9.51064597,10.9969333 9.4864978,10.9969333 C9.23074669,10.9969333 9.01121784,10.8081385 8.97828851,10.5468991 L8.97828851,10.5468991 L8.66216697,7.97731394 C8.62704235,7.69192643 8.83120418,7.42849181 9.11659169,7.38787897 Z M11.7062638,7.02488802 C11.986163,6.99305634 12.251793,7.18404644 12.2869176,7.46943394 L12.2869176,7.46943394 L12.6041368,10.0390191 C12.6392614,10.3244066 12.4350995,10.5878413 12.149712,10.6284541 C12.1244662,10.631747 12.100318,10.6339423 12.0761699,10.6339423 C11.8204188,10.6339423 11.6008899,10.4451475 11.5679606,10.1839082 L11.5679606,10.1839082 L11.2507414,7.61432298 C11.2167144,7.32893548 11.4197786,7.06550086 11.7062638,7.02488802 Z M30.401059,6.39417215 L30.4946404,6.39670622 C30.7789302,6.43731905 30.9732133,6.70075367 30.9282098,6.98614118 L30.9282098,6.98614118 L30.5220815,9.55572637 C30.480371,9.8169657 30.2542563,10.0057605 29.9985052,10.0057605 C29.9732594,10.0057605 29.9491112,10.0035652 29.924963,10.0002723 C29.6406731,9.95965945 29.4463901,9.69622483 29.4913935,9.41083732 L29.4913935,9.41083732 L29.8975219,6.84125214 C29.9425253,6.55586463 30.2114482,6.36487453 30.4946404,6.39670622 Z M19.991063,5.86336088 C20.268767,5.82933391 20.5376899,6.02251929 20.5728145,6.3079068 L20.5728145,6.3079068 L20.888936,8.87749198 C20.9240606,9.16287949 20.7198988,9.42631411 20.4345113,9.46692695 C20.4092655,9.47021988 20.3851173,9.47241517 20.3609691,9.47241517 C20.105218,9.47241517 19.8856892,9.28362036 19.8527598,9.02238103 L19.8527598,9.02238103 L19.5366383,6.45279584 C19.5015137,6.16740833 19.7056755,5.90397371 19.991063,5.86336088 Z M42.6367643,6.05764933 L42.7279953,6.0613759 L48.782601,6.91424548 C49.0679885,6.95485832 49.2622715,7.21829294 49.2172681,7.50368044 C49.1755576,7.76491977 48.9494429,7.95261694 48.6936918,7.95261694 C48.668446,7.95261694 48.6442978,7.95042165 48.6201496,7.94822636 L48.6201496,7.94822636 L42.5655439,7.09535678 C42.2812541,7.05474394 42.086971,6.79130932 42.1319745,6.50592182 C42.1769779,6.21943667 42.4535842,6.02515364 42.7279953,6.0613759 Z M7.76813573,5.5275915 C8.04583972,5.49795511 8.31476256,5.68565227 8.34988718,5.97213742 C8.38501179,6.25752493 8.18084996,6.52095955 7.89546246,6.56157238 L7.89546246,6.56157238 L1.81122039,7.41444197 C1.78597457,7.4177349 1.7618264,7.41993019 1.73767822,7.41993019 C1.48192711,7.41993019 1.26239826,7.23113538 1.22946893,6.96989604 C1.19434432,6.68450854 1.39850615,6.42217156 1.68389365,6.38155873 L1.68389365,6.38155873 Z M31.8142626,4.53421397 L31.9066499,4.53674804 L37.9612556,5.38961762 C38.2466431,5.43023046 38.4409261,5.69366508 38.3959227,5.97905258 C38.3542122,6.24029191 38.1280975,6.42798908 37.8723464,6.42798908 C37.8471006,6.42798908 37.8229524,6.42579379 37.7988043,6.4235985 L37.7988043,6.4235985 L31.7441986,5.57072892 C31.4599087,5.53011608 31.2656257,5.26668146 31.3106291,4.98129396 C31.3556325,4.69590645 31.6278483,4.50491635 31.9066499,4.53674804 Z M18.6426071,4.00296364 C18.9247016,3.96893667 19.1892339,4.16212206 19.2243585,4.44750956 C19.2594831,4.73289706 19.0553213,4.99633168 18.7699338,5.03694452 L18.7699338,5.03694452 L12.6856917,5.8898141 C12.6604459,5.89310704 12.6362977,5.89530232 12.6121496,5.89530232 C12.3563985,5.89530232 12.1368696,5.70650751 12.1039403,5.44526818 C12.0688157,5.15988068 12.2729775,4.8975437 12.558365,4.85693087 L12.558365,4.85693087 Z" id="Combined-Shape"></path>
                </g>
            </g>
        </g>
    </g>
</svg>