<?xml version="1.0" encoding="UTF-8"?>
<svg width="50px" height="50px" viewBox="0 0 50 50" version="1.1" xmlns="http://www.w3.org/2000/svg" xmlns:xlink="http://www.w3.org/1999/xlink">
    <title>Fill 1</title>
    <g id="Meetings-&amp;-Events" stroke="none" stroke-width="1" fill="none" fill-rule="evenodd">
        <g id="hex-room-1-desktop" transform="translate(-434.000000, -2199.000000)" fill="#FFFFFF">
            <g id="Properties" transform="translate(432.000000, 1672.000000)">
                <g id="icon" transform="translate(2.000000, 527.000000)">
                    <path d="M42.1875,0 L0,42.18625 L7.8135,50 L33.4355,24.377 L50,7.8135 L42.1875,0 Z M35.14175,8.59275 L36.27375,7.46575 L40.78,11.97225 L39.65225,13.10025 L35.14175,8.59275 Z M29.51175,14.228 L30.63425,13.10025 L35.146,17.6065 L34.018,18.7345 L29.51175,14.228 Z M23.872,19.86225 L25,18.7345 L29.51175,23.246 L28.38375,24.373 L23.872,19.86225 Z M18.23775,25.4965 L19.36575,24.36975 L23.872,28.88025 L22.74425,30.00825 L18.23775,25.4965 Z M12.60325,31.132 L13.73125,30.00825 L18.23775,34.5145 L17.11,35.6425 L12.60325,31.132 Z M6.964,36.7705 L8.092,35.6425 L12.60325,40.15 L11.47575,41.277 L6.964,36.7705 Z M1.50775,10.64675 L6.93175,16.07075 L16.0555,6.9485 L10.63025,1.52 L1.50775,10.64675 Z M9.81775,19.0055 L15.623,24.8095 L24.7455,15.687 L18.9415,9.88325 L9.81775,19.0055 Z M25.19025,34.377 L31.79825,40.98625 L40.922,31.8635 L34.313,25.2545 L25.19025,34.377 Z M38.22225,43.638 L46.4145,46.427 L43.62575,38.23775 L38.22225,43.638 Z" id="Fill-1"></path>
                </g>
            </g>
        </g>
    </g>
</svg>