<?xml version="1.0" encoding="UTF-8"?>
<svg width="32px" height="30px" viewBox="0 0 32 30" version="1.1" xmlns="http://www.w3.org/2000/svg" xmlns:xlink="http://www.w3.org/1999/xlink">
    <title>icon-person</title>
    <g id="Page-1" stroke="none" stroke-width="1" fill="none" fill-rule="evenodd">
        <g id="icon-person" fill="#FFFFFF" fill-rule="nonzero">
            <path d="M22.843998,17.8133418 L22.971306,17.8192253 C23.056528,17.8192253 31.764706,18.8109039 31.764706,28.2705882 C31.764706,28.9124113 31.244406,29.4327116 30.602582,29.4327116 L30.602582,29.4327116 L1.162123,29.4327116 C0.5203,29.4327116 0,28.9124113 0,28.2705882 C0,18.8109039 8.708178,17.8192253 8.7934,17.8192253 C9.435223,17.7550429 10.007554,18.2233133 10.071736,18.8651363 C10.135918,19.5069593 9.667648,20.0792897 9.025825,20.143472 C5.433305,20.5901714 2.653111,23.5064588 2.378479,27.1162123 L2.378479,27.1162123 L29.386227,27.1162123 C29.135313,23.495951 26.34303,20.5669821 22.738881,20.143472 C22.097058,20.0792897 21.628788,19.5069593 21.69297,18.8651363 C21.757152,18.2233133 22.329483,17.755043 22.971306,17.8192253 L22.843998,17.8133418 Z M15.882353,0 C20.15122,0 23.629842,4.16814921 23.629842,9.2969871 C23.629842,14.425825 20.15122,18.5939742 15.882353,18.5939742 C11.621234,18.5939742 8.134864,14.425825 8.134864,9.2969871 C8.134864,4.16814921 11.613486,0 15.882353,0 Z M15.882353,2.32424677 C12.884075,2.32424677 10.45911,5.42324247 10.45911,9.2969871 C10.45911,13.1707317 12.884075,16.2697274 15.882353,16.2697274 C18.880631,16.2697274 21.305595,13.1707317 21.305595,9.2969871 C21.305595,5.42324247 18.880631,2.32424677 15.882353,2.32424677 Z" id="Combined-Shape"></path>
        </g>
    </g>
</svg>