<?xml version="1.0" encoding="UTF-8"?>
<svg width="50px" height="47px" viewBox="0 0 50 47" version="1.1" xmlns="http://www.w3.org/2000/svg" xmlns:xlink="http://www.w3.org/1999/xlink">
    <title>Combined Shape</title>
    <g id="Meetings-&amp;-Events" stroke="none" stroke-width="1" fill="none" fill-rule="evenodd">
        <g id="hex-room-1-desktop" transform="translate(-981.000000, -2363.000000)" fill="#FFFFFF">
            <g id="Properties" transform="translate(432.000000, 1672.000000)">
                <g id="icon" transform="translate(548.999672, 689.000000)">
                    <path d="M35.4995596,46.828828 C35.8800753,46.828828 36.1825673,47.1373217 36.1753651,47.5166371 C36.1693632,47.8971527 35.856068,48.2044462 35.4755523,48.2044462 L35.4755523,48.2044462 L27.3934954,48.2044462 C27.0141801,48.2044462 26.7116881,47.8971527 26.7176022,47.5166371 C26.7248921,47.1373217 27.0381874,46.828828 27.418703,46.828828 L27.418703,46.828828 Z M21.0564089,46.828828 C21.4369246,46.828828 21.7394165,47.1373217 21.7322144,47.5166371 C21.7262125,47.8971527 21.4129173,48.2044462 21.0324016,48.2044462 L21.0324016,48.2044462 L12.951545,48.2044462 C12.5722297,48.2044462 12.2685374,47.8971527 12.2757396,47.5166371 C12.2817414,47.1373217 12.596237,46.828828 12.9755523,46.828828 L12.9755523,46.828828 Z M20.9979511,39.1754213 L21.0951807,39.9748644 L20.9955504,45.6837999 L20.1937066,45.7966342 L13.1871767,45.7966342 L13.0887467,44.9959908 L13.188377,39.2870553 L13.9902208,39.1754213 L20.9979511,39.1754213 Z M35.4399015,39.1754213 L35.5383314,39.9748644 L35.4387011,45.6837999 L34.6368574,45.7966342 L27.629127,45.7966342 L27.5306971,44.9959908 L27.6303274,39.2870553 L28.4333715,39.1754213 L35.4399015,39.1754213 Z M26.0636111,40.7249724 C26.4441268,40.7249724 26.7466187,41.0334662 26.7394165,41.4127815 L26.7394165,41.4127815 L26.6793983,44.8362222 C26.6733965,45.2155375 26.3601012,45.5240313 25.9795856,45.5240313 C25.6002702,45.5240313 25.2965779,45.2155375 25.3037801,44.8362222 L25.3037801,44.8362222 L25.3637984,41.4127815 C25.3698002,41.0334662 25.6830954,40.7249724 26.0636111,40.7249724 Z M37.0672362,40.7249724 C37.4477519,40.7249724 37.7502438,41.0334662 37.7430416,41.4127815 L37.7430416,41.4127815 L37.6830234,44.8362222 C37.6770216,45.2155375 37.3637263,45.5240313 36.9832107,45.5240313 C36.6038953,45.5240313 36.300203,45.2155375 36.3074052,44.8362222 L36.3074052,44.8362222 L36.3674235,41.4127815 C36.3734253,41.0334662 36.6867205,40.7249724 37.0672362,40.7249724 Z M11.6213006,40.7249724 C12.0018163,40.7249724 12.3043083,41.0334662 12.2971061,41.4127815 L12.2971061,41.4127815 L12.2370878,44.8362222 C12.231086,45.2155375 11.9177908,45.5240313 11.5372751,45.5240313 C11.1579598,45.5240313 10.8542675,45.2155375 10.8614696,44.8362222 L10.8614696,44.8362222 L10.9214879,41.4127815 C10.9274897,41.0334662 11.240785,40.7249724 11.6213006,40.7249724 Z M22.6248057,40.7249724 C23.0053214,40.7249724 23.3078133,41.0334662 23.3006111,41.4127815 L23.3006111,41.4127815 L23.2405929,44.8362222 C23.2345911,45.2155375 22.9212958,45.5240313 22.5407802,45.5240313 C22.1614648,45.5240313 21.8577725,45.2155375 21.8649747,44.8362222 L21.8649747,44.8362222 L21.924993,41.4127815 C21.9309948,41.0334662 22.24429,40.7249724 22.6248057,40.7249724 Z M6.77878851,37.1189562 C7.15930419,37.1189562 7.46179615,37.4274499 7.45459396,37.8067653 C7.44859214,38.1872809 7.13529689,38.4945744 6.75478122,38.4945744 L6.75478122,38.4945744 L3.33254086,38.4945744 C2.95322554,38.4945744 2.65073359,38.1872809 2.65673541,37.8067653 C2.6639376,37.4274499 2.97723284,37.1189562 3.35654815,37.1189562 L3.35654815,37.1189562 Z M46.2238598,37.1189562 C46.6043755,37.1189562 46.9068675,37.4274499 46.8996653,37.8067653 C46.8936634,38.1872809 46.5803682,38.4945744 46.1998525,38.4945744 L46.1998525,38.4945744 L42.7776122,38.4945744 C42.3982968,38.4945744 42.0958049,38.1872809 42.1018067,37.8067653 C42.1090089,37.4274499 42.4223041,37.1189562 42.8016195,37.1189562 L42.8016195,37.1189562 Z M33.0976294,12.4435348 C36.0325216,12.4435348 38.3792351,14.832261 38.3276194,17.7671532 L38.3276194,17.7671532 L38.0707413,32.5412445 C38.0191256,35.4761367 35.5883866,37.8648629 32.6534944,37.8648629 L32.6534944,37.8648629 L16.2132966,37.8648629 C13.277204,37.8648629 10.9304906,35.4761367 10.9821063,32.5412445 L10.9821063,32.5412445 L11.2401848,17.7671532 C11.2918005,14.832261 13.7213391,12.4435348 16.6562313,12.4435348 L16.6562313,12.4435348 Z M0.841543592,27.5764152 C1.22205927,27.5764152 1.52455123,27.884909 1.51734904,28.2642243 L1.51734904,28.2642243 L1.37690634,36.3462813 C1.36970415,36.7255966 1.05640891,37.0340904 0.675893235,37.0340904 C0.296577923,37.0340904 -0.00591403487,36.7255966 8.77896891e-05,36.3462813 L8.77896891e-05,36.3462813 L0.141730849,28.2642243 C0.147732674,27.884909 0.461027915,27.5764152 0.841543592,27.5764152 Z M49.0724458,27.5764152 C49.4529615,27.5764152 49.7554534,27.884909 49.7482512,28.2642243 L49.7482512,28.2642243 L49.6078085,36.3462813 C49.6006063,36.7255966 49.2873111,37.0340904 48.9067954,37.0340904 C48.5274801,37.0340904 48.2249882,36.7255966 48.23099,36.3462813 L48.23099,36.3462813 L48.372633,28.2642243 C48.3786349,27.884909 48.6919301,27.5764152 49.0724458,27.5764152 Z M9.05816144,28.3460892 L9.15659137,29.1455322 L9.03415415,36.1520622 L8.23231039,36.2648965 L2.52337487,36.2648965 L2.42494495,35.4642531 L2.54738217,28.4577231 L3.34922593,28.3460892 L9.05816144,28.3460892 Z M47.2258044,28.3460892 L47.3242343,29.1455322 L47.2017971,36.1520622 L46.3999533,36.2648965 L40.6910178,36.2648965 L40.5925879,35.4642531 L40.7150251,28.4577231 L41.5168689,28.3460892 L47.2258044,28.3460892 Z M6.97132705,26.1158112 C7.35064236,26.1158112 7.65313432,26.4231046 7.64713249,26.8036203 C7.6399303,27.1829356 7.32663506,27.4914294 6.94731975,27.4914294 L6.94731975,27.4914294 L3.52507939,27.4914294 C3.14456371,27.4914294 2.84207175,27.1829356 2.84927394,26.8036203 C2.85527577,26.4231046 3.16857101,26.1158112 3.54908669,26.1158112 L3.54908669,26.1158112 Z M46.4163983,26.1158112 C46.7957137,26.1158112 47.0982056,26.4231046 47.0922038,26.8036203 C47.0850016,27.1829356 46.7717064,27.4914294 46.392391,27.4914294 L46.392391,27.4914294 L42.9701507,27.4914294 C42.589635,27.4914294 42.2871431,27.1829356 42.2943452,26.8036203 C42.3003471,26.4231046 42.6136423,26.1158112 42.994158,26.1158112 L42.994158,26.1158112 Z M46.4764166,22.6771258 C46.8557319,22.6771258 47.1582239,22.9844193 47.152222,23.3649349 C47.1450198,23.7442503 46.8317246,24.052744 46.4524093,24.052744 L46.4524093,24.052744 L43.0301689,24.052744 C42.6496533,24.052744 42.3471613,23.7442503 42.3543635,23.3649349 C42.3603653,22.9844193 42.6736606,22.6771258 43.0541762,22.6771258 L43.0541762,22.6771258 Z M7.03134529,22.6771258 C7.4106606,22.6771258 7.71315256,22.9844193 7.70715074,23.3649349 C7.69994855,23.7442503 7.38665331,24.052744 7.00733799,24.052744 L7.00733799,24.052744 L3.58509763,24.052744 C3.20458196,24.052744 2.90209,23.7442503 2.90929219,23.3649349 C2.91529401,22.9844193 3.22858925,22.6771258 3.60910493,22.6771258 L3.60910493,22.6771258 Z M1.09362022,13.1341048 C1.4741359,13.1341048 1.77662786,13.4425985 1.76942567,13.8219139 L1.76942567,13.8219139 L1.62898297,21.9039708 C1.62178078,22.2832861 1.30848554,22.5917799 0.927969866,22.5917799 C0.548654554,22.5917799 0.246162596,22.2832861 0.252164421,21.9039708 L0.252164421,21.9039708 L0.39380748,13.8219139 C0.399809305,13.4425985 0.713104547,13.1341048 1.09362022,13.1341048 Z M49.3245224,13.1341048 C49.7050381,13.1341048 50.0075301,13.4425985 50.0003279,13.8219139 L50.0003279,13.8219139 L49.8598852,21.9039708 C49.852683,22.2832861 49.5393877,22.5917799 49.1588721,22.5917799 C48.7795567,22.5917799 48.4770648,22.2832861 48.4830666,21.9039708 L48.4830666,21.9039708 L48.6247097,13.8219139 C48.6307115,13.4425985 48.9440067,13.1341048 49.3245224,13.1341048 Z M9.31023808,13.9030585 L9.408668,14.7037019 L9.28623078,21.7102319 L8.48438702,21.8218658 L2.7754515,21.8218658 L2.67702158,21.0224228 L2.7994588,14.0158928 L3.60130256,13.9030585 L9.31023808,13.9030585 Z M47.477881,13.9030585 L47.576311,14.7037019 L47.4538737,21.7102319 L46.65203,21.8218658 L40.9430945,21.8218658 L40.8446645,21.0224228 L40.9671018,14.0158928 L41.7689455,13.9030585 L47.477881,13.9030585 Z M7.22340368,11.6735007 C7.60271899,11.6735007 7.90521095,11.9807942 7.89920912,12.3613098 C7.89200693,12.7406252 7.57871169,13.0491189 7.19939638,13.0491189 L7.19939638,13.0491189 L3.77715602,13.0491189 C3.39664034,13.0491189 3.09414838,12.7406252 3.10135057,12.3613098 C3.1073524,11.9807942 3.42064764,11.6735007 3.80116332,11.6735007 L3.80116332,11.6735007 Z M46.668475,11.6735007 C47.0477903,11.6735007 47.3502822,11.9807942 47.3442804,12.3613098 C47.3370782,12.7406252 47.023783,13.0491189 46.6444677,13.0491189 L46.6444677,13.0491189 L43.2222273,13.0491189 C42.8417116,13.0491189 42.5392197,12.7406252 42.5464219,12.3613098 C42.5524237,11.9807942 42.8657189,11.6735007 43.2462346,11.6735007 L43.2462346,11.6735007 Z M21.7725466,4.40853219 L21.8709765,5.20917559 L21.7713463,10.9181111 L20.9695025,11.029745 L13.9617721,11.029745 L13.8645426,10.230302 L13.9641729,4.5213665 L14.7660166,4.40853219 L21.7725466,4.40853219 Z M36.2160574,4.40853219 L36.313287,5.20917559 L36.2136567,10.9181111 L35.411813,11.029745 L28.405283,11.029745 L28.306853,10.230302 L28.4064833,4.5213665 L29.2083271,4.40853219 L36.2160574,4.40853219 Z M23.4232884,4.68161521 C23.8026038,4.68161521 24.1062961,4.99010899 24.0990939,5.3694243 L24.0990939,5.3694243 L24.0390756,8.79166467 C24.0330738,9.17097998 23.7197786,9.47947376 23.3392629,9.47947376 C22.9587472,9.47947376 22.6562553,9.17097998 22.6634575,8.79166467 L22.6634575,8.79166467 L22.7234757,5.3694243 C22.7294775,4.99010899 23.0427728,4.68161521 23.4232884,4.68161521 Z M12.4189431,4.68161521 C12.7982584,4.68161521 13.1019508,4.99010899 13.0947486,5.3694243 L13.0947486,5.3694243 L13.0347303,8.79166467 C13.0287285,9.17097998 12.7154333,9.47947376 12.3349176,9.47947376 C11.9544019,9.47947376 11.6519099,9.17097998 11.6591121,8.79166467 L11.6591121,8.79166467 L11.7191304,5.3694243 C11.7251322,4.99010899 12.0384274,4.68161521 12.4189431,4.68161521 Z M37.8655989,4.68161521 C38.2449142,4.68161521 38.5486065,4.99010899 38.5414043,5.3694243 L38.5414043,5.3694243 L38.4813861,8.79166467 C38.4753843,9.17097998 38.162089,9.47947376 37.7815734,9.47947376 C37.4010577,9.47947376 37.0985657,9.17097998 37.1057679,8.79166467 L37.1057679,8.79166467 L37.1657862,5.3694243 C37.171788,4.99010899 37.4850832,4.68161521 37.8655989,4.68161521 Z M26.8619738,4.68161521 C27.2412891,4.68161521 27.5449814,4.99010899 27.5377792,5.3694243 L27.5377792,5.3694243 L27.477761,8.79166467 C27.4717592,9.17097998 27.1584639,9.47947376 26.7779483,9.47947376 C26.3974326,9.47947376 26.0949406,9.17097998 26.1021428,8.79166467 L26.1021428,8.79166467 L26.1621611,5.3694243 C26.1681629,4.99010899 26.4814581,4.68161521 26.8619738,4.68161521 Z M22.0081782,2 C22.3874936,2 22.6911859,2.30729342 22.6839837,2.68780909 C22.6779819,3.06712441 22.3634863,3.37561819 21.984171,3.37561819 L21.984171,3.37561819 L13.9033144,3.37561819 C13.5227987,3.37561819 13.2203067,3.06712441 13.2275089,2.68780909 C13.2335108,2.30729342 13.546806,2 13.9273217,2 L13.9273217,2 Z M36.4504887,2 C36.829804,2 37.1334963,2.30729342 37.1262942,2.68780909 C37.1202923,3.06712441 36.8057967,3.37561819 36.4264814,3.37561819 L36.4264814,3.37561819 L28.3456248,3.37561819 C27.9651092,3.37561819 27.6626172,3.06712441 27.6698194,2.68780909 C27.6758212,2.30729342 27.9891165,2 28.3696321,2 L28.3696321,2 Z" id="Combined-Shape"></path>
                </g>
            </g>
        </g>
    </g>
</svg>