<?xml version="1.0" encoding="UTF-8"?>
<svg width="24px" height="32px" viewBox="0 0 24 32" version="1.1" xmlns="http://www.w3.org/2000/svg" xmlns:xlink="http://www.w3.org/1999/xlink">
    <title>icon-location</title>
    <g id="Page-1" stroke="none" stroke-width="1" fill="none" fill-rule="evenodd">
        <g id="icon-location" fill="#FFFFFF" fill-rule="nonzero">
            <path d="M11.879,7.684 C9.691,7.684 7.91,9.515 7.91,11.766 C7.91,14.017 9.691,15.849 11.879,15.849 C14.067,15.849 15.848,14.017 15.848,11.766 C15.848,9.515 14.067,7.684 11.879,7.684 M11.879,18.099 C8.45,18.099 5.66,15.258 5.66,11.766 C5.66,8.275 8.45,5.434 11.879,5.434 C15.308,5.434 18.098,8.275 18.098,11.766 C18.098,15.258 15.308,18.099 11.879,18.099 M11.766,2.25 C9.225,2.25 6.919,3.052 5.273,4.508 C3.295,6.256 2.25,8.955 2.25,12.317 C2.25,18.385 8.396,26.134 11.646,29.383 C11.708,29.448 11.823,29.448 11.886,29.383 C15.136,26.134 21.281,18.385 21.281,12.317 C21.281,8.955 20.236,6.256 18.259,4.508 C16.612,3.052 14.307,2.25 11.766,2.25 M11.766,31.683 C11.128,31.683 10.504,31.425 10.054,30.975 C9.644,30.564 0,20.823 0,12.317 C0,8.292 1.308,5.009 3.782,2.823 C5.84,1.002 8.675,0 11.766,0 C14.857,0 17.691,1.002 19.749,2.823 C22.224,5.009 23.531,8.292 23.531,12.317 C23.531,20.823 13.888,30.564 13.478,30.975 C13.027,31.425 12.403,31.683 11.766,31.683" id="Fill-1"></path>
        </g>
    </g>
</svg>