<?xml version="1.0" encoding="UTF-8"?>
<svg width="50px" height="47px" viewBox="0 0 50 47" version="1.1" xmlns="http://www.w3.org/2000/svg" xmlns:xlink="http://www.w3.org/1999/xlink">
    <title>Combined Shape</title>
    <g id="Meetings-&amp;-Events" stroke="none" stroke-width="1" fill="none" fill-rule="evenodd">
        <g id="hex-room-1-desktop" transform="translate(-433.000000, -2281.000000)" fill="#FFFFFF">
            <g id="Properties" transform="translate(432.000000, 1672.000000)">
                <g id="icon" transform="translate(0.999559, 609.000000)">
                    <path d="M24.3073283,24.7376774 C30.3471745,24.7376774 35.1576415,29.633784 35.0528456,35.6736302 C34.946923,41.7134763 29.9651767,46.6107098 23.9253306,46.6107098 C17.8854844,46.6107098 13.0750174,41.7134763 13.1798132,35.6736302 C13.2857359,29.633784 18.2674821,24.7376774 24.3073283,24.7376774 Z M39.2532431,0.331177386 C45.2930893,0.331177386 50.1035563,5.22728402 49.9987605,11.2671302 C49.8928378,17.3069763 44.9110916,22.2042098 38.8712454,22.2042098 C32.8313992,22.2042098 28.0209322,17.3069763 28.1257281,11.2671302 C28.2316507,5.22728402 33.213397,0.331177386 39.2532431,0.331177386 Z M11.1291953,0 C17.1690415,0 21.9806353,4.89610664 21.8747126,10.9359528 C21.76879,16.975799 16.7870437,21.8719056 10.7471976,21.8719056 C4.7073514,21.8719056 -0.103115622,16.975799 0.00168021659,10.9359528 C0.107602892,4.89610664 5.08934914,0 11.1291953,0 Z" id="Combined-Shape"></path>
                </g>
            </g>
        </g>
    </g>
</svg>