<?xml version="1.0" encoding="UTF-8"?>
<svg width="50px" height="41px" viewBox="0 0 50 41" version="1.1" xmlns="http://www.w3.org/2000/svg" xmlns:xlink="http://www.w3.org/1999/xlink">
    <title>Combined Shape</title>
    <g id="Meetings-&amp;-Events" stroke="none" stroke-width="1" fill="none" fill-rule="evenodd">
        <g id="hex-room-1-desktop" transform="translate(-981.000000, -2285.000000)" fill="#FFFFFF">
            <g id="Properties" transform="translate(432.000000, 1672.000000)">
                <g id="item" transform="translate(548.999559, 608.000000)">
                    <g id="Group-53" transform="translate(0.000000, 5.000000)">
                        <path d="M33.0982475,10.4431939 C36.0340049,10.4431939 38.379281,12.8306473 38.3282244,15.7664047 L38.3282244,15.7664047 L37.9863668,35.3555097 C37.9541789,37.2224072 37.2482652,38.6875111 36.0506538,39.3789957 C35.0372903,39.9628174 33.8496682,40.0527215 32.9539569,39.6131904 C32.1892171,39.2391449 31.7086186,38.5387809 31.596516,37.6419597 L31.596516,37.6419597 L31.5931862,37.6020023 L30.6042411,22.5702584 C30.4765994,21.540246 29.5620194,20.7333289 28.4809504,20.7333289 L28.4809504,20.7333289 L20.773616,20.7333289 C19.6803377,20.7333289 18.7357896,21.5513452 18.5759601,22.636854 L18.5759601,22.636854 L17.1341647,37.9394202 C17.0187323,38.7374578 16.6457967,39.3357086 16.0530956,39.7042044 C15.6479722,39.9550479 15.1651539,40.0815796 14.6357186,40.0815796 C14.2317051,40.0815796 13.7999434,40.0083245 13.3559726,39.8595942 C11.4957346,39.2391449 10.8697357,37.0459288 10.8985938,35.3555097 L10.8985938,35.3555097 L11.2404513,15.7664047 C11.2926179,12.8306473 13.7222485,10.4431939 16.656896,10.4431939 L16.656896,10.4431939 Z M6.77932099,35.1195392 C7.15891609,35.1195392 7.46192621,35.4280989 7.45526665,35.807694 C7.44860708,36.1872891 7.13560762,36.4947389 6.75490259,36.4947389 L6.75490259,36.4947389 L3.33299707,36.4947389 C2.95340197,36.4947389 2.65039185,36.1872891 2.65705141,35.807694 C2.66371097,35.4280989 2.97671044,35.1195392 3.35630554,35.1195392 L3.35630554,35.1195392 Z M46.2243574,35.1195392 C46.6039525,35.1195392 46.9069626,35.4280989 46.9003031,35.807694 C46.8936435,36.1872891 46.580644,36.4947389 46.199939,36.4947389 L46.199939,36.4947389 L42.7780335,36.4947389 C42.3984384,36.4947389 42.0965382,36.1872891 42.1020878,35.807694 C42.1087474,35.4280989 42.4228568,35.1195392 42.8024519,35.1195392 L42.8024519,35.1195392 Z M0.841432513,25.5767182 C1.22102761,25.5767182 1.52403773,25.8852779 1.51737817,26.264873 L1.51737817,26.264873 L1.37641742,34.3462529 C1.36975785,34.725848 1.05564846,35.0332978 0.676053362,35.0332978 C0.296458263,35.0332978 -0.00655185927,34.725848 0.00010770386,34.3462529 L0.00010770386,34.3462529 L0.141068457,26.264873 C0.14772802,25.8852779 0.461837414,25.5767182 0.841432513,25.5767182 Z M49.0726525,25.5767182 C49.4522476,25.5767182 49.7552578,25.8852779 49.7485982,26.264873 L49.7485982,26.264873 L49.6076374,34.3462529 C49.6009779,34.725848 49.2868685,35.0332978 48.9072734,35.0332978 C48.5276783,35.0332978 48.2246682,34.725848 48.2313277,34.3462529 L48.2313277,34.3462529 L48.3722885,26.264873 C48.3789481,25.8852779 48.6930574,25.5767182 49.0726525,25.5767182 Z M8.2333256,26.3461197 C8.74944175,26.3461197 9.16233466,26.7667821 9.15345524,27.2828982 L9.15345524,27.2828982 L9.04801216,33.3275617 C9.03913274,33.8436779 8.61181078,34.2643403 8.09458471,34.2643403 L8.09458471,34.2643403 L3.34853605,34.2643403 C2.83130998,34.2643403 2.41841706,33.8436779 2.42840641,33.3275617 L2.42840641,33.3275617 L2.53384949,27.2828982 C2.54272891,26.7667821 2.97005088,26.3461197 3.48616702,26.3461197 L3.48616702,26.3461197 Z M46.4007248,26.3461197 C46.916841,26.3461197 47.3308438,26.7667821 47.3219644,27.2828982 L47.3219644,27.2828982 L47.2165213,33.3275617 C47.2076419,33.8436779 46.77921,34.2643403 46.2619839,34.2643403 L46.2619839,34.2643403 L41.5170452,34.2643403 C40.9998191,34.2643403 40.5869262,33.8436779 40.5958056,33.3275617 L40.5958056,33.3275617 L40.7012487,27.2828982 C40.7101281,26.7667821 41.13856,26.3461197 41.6546762,26.3461197 L41.6546762,26.3461197 Z M6.97100541,24.11561 C7.35171044,24.11561 7.65361063,24.4230598 7.64695107,24.8026549 C7.64029151,25.18225 7.32729204,25.4908098 6.94769694,25.4908098 L6.94769694,25.4908098 L3.52468149,25.4908098 C3.14508639,25.4908098 2.84207627,25.18225 2.84873583,24.8026549 C2.8553954,24.4230598 3.16839486,24.11561 3.54909989,24.11561 L3.54909989,24.11561 Z M46.4168188,24.11561 C46.7964139,24.11561 47.0983141,24.4230598 47.0927644,24.8026549 C47.0861049,25.18225 46.7719955,25.4908098 46.3924004,25.4908098 L46.3924004,25.4908098 L42.9704948,25.4908098 C42.5908997,25.4908098 42.2878896,25.18225 42.2945492,24.8026549 C42.3012088,24.4230598 42.6142082,24.11561 42.9949132,24.11561 L42.9949132,24.11561 Z M7.03105247,20.6772776 C7.41064757,20.6772776 7.71365769,20.9847274 7.70699813,21.3643225 C7.70033857,21.7439176 7.3873391,22.0524774 7.007744,22.0524774 L7.007744,22.0524774 L3.58472855,22.0524774 C3.20513345,22.0524774 2.90212333,21.7439176 2.90878289,21.3643225 C2.91544246,20.9847274 3.22844193,20.6772776 3.60914695,20.6772776 L3.60914695,20.6772776 Z M46.4768658,20.6772776 C46.8564609,20.6772776 47.1583611,20.9847274 47.1528115,21.3643225 C47.1461519,21.7439176 46.8320425,22.0524774 46.4524474,22.0524774 L46.4524474,22.0524774 L43.0305419,22.0524774 C42.6509468,22.0524774 42.3479367,21.7439176 42.3545962,21.3643225 C42.3612558,20.9847274 42.6742553,20.6772776 43.0549603,20.6772776 L43.0549603,20.6772776 Z M1.09349698,11.1340126 C1.47309208,11.1340126 1.7761022,11.4425724 1.76944264,11.8221675 L1.76944264,11.8221675 L1.62848188,19.9024374 C1.62182232,20.2831424 1.30771292,20.5905923 0.928117826,20.5905923 C0.548522728,20.5905923 0.245512605,20.2831424 0.252172168,19.9024374 L0.252172168,19.9024374 L0.393132921,11.8221675 C0.399792485,11.4425724 0.713901879,11.1340126 1.09349698,11.1340126 Z M49.324828,11.1340126 C49.7044231,11.1340126 50.0074332,11.4425724 50.0007737,11.8221675 L50.0007737,11.8221675 L49.8598129,19.9024374 C49.8531533,20.2831424 49.5390439,20.5905923 49.1594489,20.5905923 C48.7798538,20.5905923 48.4768436,20.2831424 48.4835032,19.9024374 L48.4835032,19.9024374 L48.6244639,11.8221675 C48.6311235,11.4425724 48.9452329,11.1340126 49.324828,11.1340126 Z M8.48539007,11.9033031 C9.00150621,11.9033031 9.41439913,12.3239655 9.40551971,12.8400817 L9.40551971,12.8400817 L9.30007663,18.8847452 C9.29119721,19.4008613 8.86387524,19.8215237 8.34664917,19.8215237 L8.34664917,19.8215237 L3.60060051,19.8215237 C3.08337444,19.8215237 2.67048153,19.4008613 2.68047087,18.8847452 L2.68047087,18.8847452 L2.78591395,12.8400817 C2.79479337,12.3239655 3.22211534,11.9033031 3.73823148,11.9033031 L3.73823148,11.9033031 Z M46.6527893,11.9033031 C47.1689054,11.9033031 47.5829083,12.3239655 47.5740289,12.8400817 L47.5740289,12.8400817 L47.4685858,18.8847452 C47.4597064,19.4008613 47.0312745,19.8215237 46.5140484,19.8215237 L46.5140484,19.8215237 L41.7691097,19.8215237 C41.2518836,19.8215237 40.8389907,19.4008613 40.8478701,18.8847452 L40.8478701,18.8847452 L40.9533132,12.8400817 C40.9621926,12.3239655 41.3906245,11.9033031 41.9067406,11.9033031 L41.9067406,11.9033031 Z M7.22306988,9.67279346 C7.60266498,9.67279346 7.9056751,9.9802433 7.89901554,10.3598384 C7.89235597,10.7394335 7.57935651,11.0479933 7.19976141,11.0479933 L7.19976141,11.0479933 L3.77674596,11.0479933 C3.39715086,11.0479933 3.09414074,10.7394335 3.1008003,10.3598384 C3.10745986,9.9802433 3.42045933,9.67279346 3.80116435,9.67279346 L3.80116435,9.67279346 Z M46.6689942,9.67279346 C47.0485893,9.67279346 47.3504895,9.9802433 47.3449399,10.3598384 C47.3382803,10.7394335 47.0241709,11.0479933 46.6445758,11.0479933 L46.6445758,11.0479933 L43.2226703,11.0479933 C42.8430752,11.0479933 42.5400651,10.7394335 42.5467246,10.3598384 C42.5533842,9.9802433 42.8663837,9.67279346 43.2470887,9.67279346 L43.2470887,9.67279346 Z M20.2170985,2.40909696 C20.7332146,2.40909696 21.1461075,2.82975937 21.1372281,3.34587551 L21.1372281,3.34587551 L21.0550935,8.09192417 C21.0451042,8.60804031 20.6177822,9.02981264 20.101666,9.02981264 L20.101666,9.02981264 L14.0570026,9.02981264 C13.5397765,9.02981264 13.1279935,8.60804031 13.1368729,8.09192417 L13.1368729,8.09192417 L13.2190075,3.34587551 C13.227887,2.82975937 13.6563189,2.40909696 14.172435,2.40909696 L14.172435,2.40909696 Z M34.659804,2.40909696 C35.1759202,2.40909696 35.5888131,2.82975937 35.5799337,3.34587551 L35.5799337,3.34587551 L35.4977991,8.09192417 C35.4878097,8.60804031 35.0604877,9.02981264 34.5443716,9.02981264 L34.5443716,9.02981264 L28.4997081,9.02981264 C27.9824821,9.02981264 27.5706991,8.60804031 27.5795785,8.09192417 L27.5795785,8.09192417 L27.6617131,3.34587551 C27.6705925,2.82975937 28.0990244,2.40909696 28.6151406,2.40909696 L28.6151406,2.40909696 Z M11.687863,2.68091813 C12.0674581,2.68091813 12.3704682,2.98947789 12.3638086,3.36907299 L12.3638086,3.36907299 L12.3038726,6.79097851 C12.297213,7.17057361 11.9842135,7.47913337 11.6035085,7.47913337 C11.2239134,7.47913337 10.9220132,7.17057361 10.9286728,6.79097851 L10.9286728,6.79097851 L10.9874989,3.36907299 C10.9941585,2.98947789 11.3082679,2.68091813 11.687863,2.68091813 Z M22.6916811,2.68169508 C23.0723862,2.68169508 23.3742864,2.98914491 23.3676268,3.36874001 L23.3676268,3.36874001 L23.3088007,6.79064553 C23.3021411,7.17024063 22.9880317,7.47880039 22.6084366,7.47880039 C22.2288415,7.47880039 21.9258314,7.17024063 21.9324909,6.79064553 L21.9324909,6.79064553 L21.992427,3.36874001 C21.9990866,2.98914491 22.312086,2.68169508 22.6916811,2.68169508 Z M37.1343867,2.68169508 C37.5150917,2.68169508 37.8169919,2.98914491 37.8103324,3.36874001 L37.8103324,3.36874001 L37.7515062,6.79064553 C37.7448466,7.17024063 37.4307373,7.47880039 37.0511422,7.47880039 C36.6715471,7.47880039 36.3685369,7.17024063 36.3751965,6.79064553 L36.3751965,6.79064553 L36.4351326,3.36874001 C36.4417921,2.98914491 36.7547916,2.68169508 37.1343867,2.68169508 Z M26.1300136,2.68169508 C26.5107186,2.68169508 26.8126188,2.98914491 26.8059592,3.36874001 L26.8059592,3.36874001 L26.7471331,6.79064553 C26.7404735,7.17024063 26.4263641,7.47880039 26.046769,7.47880039 C25.6671739,7.47880039 25.3641638,7.17024063 25.3708234,6.79064553 L25.3708234,6.79064553 L25.4307595,3.36874001 C25.437419,2.98914491 25.7504185,2.68169508 26.1300136,2.68169508 Z M21.2768569,0 C21.657562,0 21.9594622,0.307449831 21.9528026,0.68704493 C21.946143,1.06664003 21.6331436,1.37519979 21.2535485,1.37519979 L21.2535485,1.37519979 L13.1721686,1.37519979 C12.7925735,1.37519979 12.4895634,1.06664003 12.496223,0.68704493 C12.5028825,0.307449831 12.815882,0 13.196587,0 L13.196587,0 Z M35.7195625,0 C36.1002675,0 36.4021677,0.307449831 36.3955082,0.68704493 C36.3888486,1.06664003 36.0758491,1.37519979 35.696254,1.37519979 L35.696254,1.37519979 L27.6148742,1.37519979 C27.2352791,1.37519979 26.932269,1.06664003 26.9389285,0.68704493 C26.9455881,0.307449831 27.2585875,0 27.6392926,0 L27.6392926,0 Z" id="Combined-Shape"></path>
                    </g>
                </g>
            </g>
        </g>
    </g>
</svg>