<svg width="226" height="48" viewBox="0 0 226 48" fill="none" xmlns="http://www.w3.org/2000/svg">
<g id="Tripadvisor_lockup_horizontal_secondary_registered 1" clip-path="url(#clip0_850_5536)">
<g id="Group">
<path id="Vector" d="M224.377 32.0742C223.678 32.0742 223.109 32.6427 223.109 33.3426C223.109 34.0425 223.677 34.611 224.377 34.611C225.077 34.611 225.646 34.0425 225.646 33.3426C225.646 32.6427 225.077 32.0742 224.377 32.0742ZM224.377 34.4098C223.787 34.4098 223.31 33.9298 223.31 33.3426C223.31 32.7526 223.79 32.2754 224.377 32.2754C224.967 32.2754 225.447 32.7554 225.447 33.3426C225.447 33.9298 224.967 34.4098 224.377 34.4098ZM224.79 33.1254C224.79 32.8947 224.627 32.758 224.385 32.758H223.98V33.9138H224.179V33.4954H224.396L224.605 33.9138H224.82L224.589 33.4526C224.713 33.3962 224.79 33.2835 224.79 33.1254ZM224.377 33.3158H224.182V32.9324H224.377C224.511 32.9324 224.592 32.9994 224.592 33.1227C224.592 33.2487 224.509 33.3158 224.377 33.3158ZM71.5469 19.2375V16.1698H66.8435V34.4205H71.5469V23.4771C71.5469 21.4954 72.818 20.522 74.7997 20.522H77.374V16.1699H75.175C73.4535 16.1698 71.9572 17.0681 71.5469 19.2375ZM81.7798 8.95106C80.1708 8.95106 78.9373 10.2221 78.9373 11.8311C78.9373 13.4025 80.1708 14.6736 81.7798 14.6736C83.3887 14.6736 84.6222 13.4025 84.6222 11.8311C84.6222 10.2221 83.3887 8.95106 81.7798 8.95106ZM79.4334 34.4206H84.1262V16.1698H79.4334V34.4206ZM106.48 25.2952C106.48 30.5054 102.256 34.729 97.0459 34.729C94.9435 34.729 93.0369 34.0398 91.5084 32.876V39.7784H86.8157V16.1698H91.5084V17.7144C93.0369 16.5506 94.9435 15.8614 97.0459 15.8614C102.256 15.8614 106.48 20.0849 106.48 25.2952ZM101.757 25.2952C101.757 22.4661 99.462 20.1707 96.633 20.1707C93.8039 20.1707 91.5085 22.4661 91.5085 25.2952C91.5085 28.1243 93.8039 30.4197 96.633 30.4197C99.462 30.4197 101.757 28.1269 101.757 25.2952ZM188.042 23.6943L185.304 22.9435C183.502 22.4741 182.802 21.9218 182.802 20.9698C182.802 20.042 183.789 19.3931 185.2 19.3931C186.543 19.3931 187.597 20.2726 187.597 21.3988V21.5034H191.922V21.3988C191.922 18.0871 189.222 15.8613 185.2 15.8613C181.218 15.8613 178.324 18.0844 178.324 21.1494C178.324 23.5333 179.904 25.3299 182.66 26.0754L185.283 26.7914C187.275 27.3438 188.015 27.9553 188.015 29.052C188.015 30.2078 186.945 30.9854 185.353 30.9854C183.693 30.9854 182.574 29.9342 182.574 28.3736V28.269H177.984V28.3736C177.984 32.1171 180.998 34.7342 185.315 34.7342C189.474 34.7342 192.494 32.1787 192.494 28.6605C192.494 26.9336 191.721 24.6758 188.042 23.6943ZM123.127 16.1698H127.82V34.4205H123.127V32.8759C121.598 34.0398 119.692 34.7289 117.589 34.7289C112.379 34.7289 108.156 30.5054 108.156 25.2951C108.156 20.0848 112.379 15.8613 117.589 15.8613C119.692 15.8613 121.598 16.5505 123.127 17.7143V16.1698ZM123.127 25.2952C123.127 22.4635 120.831 20.1707 118.002 20.1707C115.173 20.1707 112.878 22.4661 112.878 25.2952C112.878 28.1243 115.173 30.4197 118.002 30.4197C120.834 30.4197 123.127 28.1269 123.127 25.2952ZM144.764 9.67506H149.457V34.4232H144.764V32.8786C143.236 34.0424 141.329 34.7316 139.227 34.7316C134.017 34.7316 129.793 30.5081 129.793 25.2978C129.793 20.0875 134.017 15.864 139.227 15.864C141.329 15.864 143.236 16.5532 144.764 17.717V9.67506ZM144.764 25.2952C144.764 22.4661 142.469 20.1707 139.64 20.1707C136.811 20.1707 134.515 22.4661 134.515 25.2952C134.515 28.1243 136.808 30.4197 139.64 30.4197C142.469 30.4197 144.764 28.1269 144.764 25.2952ZM171.245 34.4206H175.938V16.1698H171.245V34.4206ZM173.591 8.95106C171.982 8.95106 170.749 10.2221 170.749 11.8311C170.749 13.4025 171.982 14.6736 173.591 14.6736C175.2 14.6736 176.434 13.4025 176.434 11.8311C176.434 10.2221 175.2 8.95106 173.591 8.95106ZM212.777 25.2952C212.777 30.5054 208.553 34.729 203.343 34.729C198.133 34.729 193.909 30.5055 193.909 25.2952C193.909 20.0848 198.133 15.8614 203.343 15.8614C208.553 15.8614 212.777 20.0849 212.777 25.2952ZM208.468 25.2952C208.468 22.4661 206.172 20.1707 203.343 20.1707C200.514 20.1707 198.219 22.4661 198.219 25.2952C198.219 28.1243 200.511 30.4197 203.343 30.4197C206.172 30.4197 208.468 28.1269 208.468 25.2952ZM69.1442 9.67506H51.1428V13.861H57.8066V34.4205H62.4832V13.861H69.1469V9.67506H69.1442ZM160.181 29.4221L156.006 16.1699H151.077L157.338 34.4206H162.986L169.285 16.1699H164.356L160.181 29.4221ZM219.652 19.2375V16.1698H214.949V34.4205H219.652V23.4771C219.652 21.4954 220.924 20.522 222.905 20.522H225.479V16.1699H223.281C221.559 16.1698 220.065 17.0681 219.652 19.2375Z" fill="white"/>
<path id="Vector_2" d="M24.0001 48C37.2549 48 48.0001 37.2548 48.0001 24C48.0001 10.7452 37.2549 0 24.0001 0C10.7452 0 6.10352e-05 10.7452 6.10352e-05 24C6.10352e-05 37.2548 10.7452 48 24.0001 48Z" fill="#34E0A1"/>
<path id="Vector_3" d="M38.8237 19.318L41.7198 16.1671H35.2975C32.0823 13.9709 28.1993 12.6918 24 12.6918C19.806 12.6918 15.9339 13.9736 12.724 16.1671H6.28558L9.18168 19.318C7.40651 20.9376 6.29366 23.2706 6.29366 25.861C6.29366 30.7495 10.2571 34.7128 15.1456 34.7128C17.4678 34.7128 19.5835 33.8172 21.163 32.3531L24.0001 35.4422L26.8372 32.3557C28.4166 33.8199 30.5297 34.7128 32.8519 34.7128C37.7404 34.7128 41.7091 30.7495 41.7091 25.861C41.7117 23.2679 40.5989 20.935 38.8237 19.318ZM15.1482 31.8516C11.8391 31.8516 9.15759 29.1701 9.15759 25.861C9.15759 22.5519 11.8392 19.8704 15.1482 19.8704C18.4572 19.8704 21.1388 22.5519 21.1388 25.861C21.1388 29.1701 18.4572 31.8516 15.1482 31.8516ZM24.0027 25.6867C24.0027 21.7448 21.1361 18.3607 17.3524 16.9153C19.3984 16.0598 21.6429 15.5852 24 15.5852C26.3571 15.5852 28.6042 16.0598 30.6503 16.9153C26.8693 18.3633 24.0027 21.7448 24.0027 25.6867ZM32.8546 31.8516C29.5455 31.8516 26.8639 29.1701 26.8639 25.861C26.8639 22.5519 29.5455 19.8704 32.8546 19.8704C36.1637 19.8704 38.8452 22.5519 38.8452 25.861C38.8452 29.1701 36.1636 31.8516 32.8546 31.8516ZM32.8546 22.7182C31.1196 22.7182 29.7144 24.1233 29.7144 25.8583C29.7144 27.5933 31.1196 28.9984 32.8546 28.9984C34.5895 28.9984 35.9947 27.5933 35.9947 25.8583C35.9946 24.126 34.5895 22.7182 32.8546 22.7182ZM18.2883 25.861C18.2883 27.5959 16.8831 29.0011 15.1482 29.0011C13.4132 29.0011 12.0081 27.5959 12.0081 25.861C12.0081 24.126 13.4132 22.7208 15.1482 22.7208C16.8831 22.7182 18.2883 24.126 18.2883 25.861Z" fill="black"/>
</g>
</g>
<defs>
<clipPath id="clip0_850_5536">
<rect width="225.646" height="48" fill="white"/>
</clipPath>
</defs>
</svg>
